%TF.GenerationSoftware,KiCad,Pcbnew,7.0.5-0*%
%TF.CreationDate,2023-06-06T12:59:25+02:00*%
%TF.ProjectId,kropyvnytskyi-overdrive,6b726f70-7976-46e7-9974-736b79692d6f,1.0*%
%TF.SameCoordinates,Original*%
%TF.FileFunction,Soldermask,Top*%
%TF.FilePolarity,Negative*%
%FSLAX46Y46*%
G04 Gerber Fmt 4.6, Leading zero omitted, Abs format (unit mm)*
G04 Created by KiCad (PCBNEW 7.0.5-0) date 2023-06-06 12:59:25*
%MOMM*%
%LPD*%
G01*
G04 APERTURE LIST*
%ADD10R,2.000000X2.000000*%
%ADD11O,2.000000X2.000000*%
%ADD12R,2.540000X2.540000*%
%ADD13O,2.540000X2.540000*%
%ADD14R,2.032000X2.032000*%
%ADD15R,1.930400X1.930400*%
%ADD16O,1.930400X1.930400*%
%ADD17R,3.416000X3.416000*%
%ADD18O,3.416000X3.416000*%
%ADD19O,2.032000X2.032000*%
G04 APERTURE END LIST*
G36*
X121516591Y-107649019D02*
G01*
X121520800Y-107658214D01*
X121511044Y-107670799D01*
X121482755Y-107682605D01*
X121437394Y-107693134D01*
X121400800Y-107698877D01*
X121374009Y-107702091D01*
X121364124Y-107701119D01*
X121368270Y-107694736D01*
X121375800Y-107688215D01*
X121405002Y-107668852D01*
X121438309Y-107654293D01*
X121471094Y-107645497D01*
X121498730Y-107643419D01*
X121516591Y-107649019D01*
G37*
G36*
X123925562Y-104666100D02*
G01*
X123992529Y-104672799D01*
X124066754Y-104682869D01*
X124142203Y-104695428D01*
X124212839Y-104709596D01*
X124253819Y-104719382D01*
X124383093Y-104761865D01*
X124512523Y-104821492D01*
X124637934Y-104895881D01*
X124755149Y-104982652D01*
X124826394Y-105045929D01*
X124885180Y-105102552D01*
X124931552Y-105148086D01*
X124967799Y-105184999D01*
X124996208Y-105215763D01*
X125019067Y-105242845D01*
X125038665Y-105268717D01*
X125055683Y-105293425D01*
X125078128Y-105328765D01*
X125097523Y-105363586D01*
X125114352Y-105399986D01*
X125129100Y-105440064D01*
X125142253Y-105485918D01*
X125154296Y-105539646D01*
X125165712Y-105603348D01*
X125176988Y-105679120D01*
X125188608Y-105769063D01*
X125201057Y-105875274D01*
X125211158Y-105966211D01*
X125219839Y-106043391D01*
X125228785Y-106118972D01*
X125237517Y-106189186D01*
X125245555Y-106250270D01*
X125252420Y-106298455D01*
X125257011Y-106326654D01*
X125268916Y-106438355D01*
X125268201Y-106511654D01*
X125264248Y-106566546D01*
X125257383Y-106636729D01*
X125248186Y-106717800D01*
X125237234Y-106805355D01*
X125225104Y-106894993D01*
X125212376Y-106982309D01*
X125199628Y-107062902D01*
X125187437Y-107132369D01*
X125185049Y-107144889D01*
X125142455Y-107333271D01*
X125086466Y-107531083D01*
X125018634Y-107734467D01*
X124940511Y-107939564D01*
X124853646Y-108142515D01*
X124759592Y-108339462D01*
X124659900Y-108526546D01*
X124566449Y-108683600D01*
X124540822Y-108727221D01*
X124511252Y-108782088D01*
X124481507Y-108840990D01*
X124456750Y-108893600D01*
X124431572Y-108946360D01*
X124404141Y-108998556D01*
X124377707Y-109044287D01*
X124355521Y-109077652D01*
X124354804Y-109078600D01*
X124335166Y-109105383D01*
X124306959Y-109145238D01*
X124272676Y-109194574D01*
X124234808Y-109249800D01*
X124195846Y-109307323D01*
X124188268Y-109318600D01*
X124148358Y-109376802D01*
X124107737Y-109433795D01*
X124069189Y-109485833D01*
X124035498Y-109529171D01*
X124009447Y-109560064D01*
X124006176Y-109563600D01*
X123973967Y-109599501D01*
X123943473Y-109636469D01*
X123920239Y-109667711D01*
X123916361Y-109673600D01*
X123886378Y-109717568D01*
X123845580Y-109772500D01*
X123796827Y-109834762D01*
X123742976Y-109900721D01*
X123686887Y-109966743D01*
X123674803Y-109980606D01*
X123631009Y-110032591D01*
X123589368Y-110086609D01*
X123547337Y-110146326D01*
X123502373Y-110215407D01*
X123451933Y-110297518D01*
X123433354Y-110328600D01*
X123385800Y-110408600D01*
X123253564Y-110414450D01*
X123247798Y-110191525D01*
X123245310Y-110116899D01*
X123242828Y-110063011D01*
X123380936Y-110063011D01*
X123381473Y-110141268D01*
X123383022Y-110200768D01*
X123385696Y-110242734D01*
X123389608Y-110268387D01*
X123394871Y-110278951D01*
X123400689Y-110276760D01*
X123408246Y-110267060D01*
X123426345Y-110243319D01*
X123453515Y-110207484D01*
X123488281Y-110161503D01*
X123529171Y-110107323D01*
X123574713Y-110046891D01*
X123605156Y-110006449D01*
X123652375Y-109943157D01*
X123695166Y-109884759D01*
X123732162Y-109833203D01*
X123761997Y-109790436D01*
X123783304Y-109758406D01*
X123794715Y-109739062D01*
X123796186Y-109734225D01*
X123783248Y-109725037D01*
X123759092Y-109715021D01*
X123752700Y-109712987D01*
X123728030Y-109707710D01*
X123703551Y-109708725D01*
X123671679Y-109716776D01*
X123653516Y-109722684D01*
X123620309Y-109736118D01*
X123578567Y-109756239D01*
X123532651Y-109780557D01*
X123486916Y-109806584D01*
X123445723Y-109831829D01*
X123413429Y-109853803D01*
X123394392Y-109870015D01*
X123393300Y-109871334D01*
X123388230Y-109885219D01*
X123384577Y-109913026D01*
X123382233Y-109956433D01*
X123381090Y-110017118D01*
X123380936Y-110063011D01*
X123242828Y-110063011D01*
X123241765Y-110039942D01*
X123237480Y-109966058D01*
X123232773Y-109900648D01*
X123227962Y-109849116D01*
X123227331Y-109843600D01*
X123216156Y-109732604D01*
X123208673Y-109619189D01*
X123204912Y-109500850D01*
X123204912Y-109496764D01*
X123375968Y-109496764D01*
X123376102Y-109506851D01*
X123376585Y-109533376D01*
X123377348Y-109572780D01*
X123378323Y-109621504D01*
X123378800Y-109644869D01*
X123381800Y-109791139D01*
X123498800Y-109726136D01*
X123542323Y-109701788D01*
X123579279Y-109680797D01*
X123606274Y-109665116D01*
X123619915Y-109656695D01*
X123620800Y-109655997D01*
X123618396Y-109648650D01*
X123614811Y-109646901D01*
X123602749Y-109640231D01*
X123577404Y-109624731D01*
X123542209Y-109602547D01*
X123538639Y-109600254D01*
X123866665Y-109600254D01*
X123873739Y-109603583D01*
X123874838Y-109603600D01*
X123892232Y-109596888D01*
X123915658Y-109579894D01*
X123926800Y-109569600D01*
X123948495Y-109545218D01*
X123959639Y-109527173D01*
X123959297Y-109518130D01*
X123946539Y-109520755D01*
X123943300Y-109522427D01*
X123926125Y-109535136D01*
X123902680Y-109556403D01*
X123891338Y-109567779D01*
X123872110Y-109589234D01*
X123866665Y-109600254D01*
X123538639Y-109600254D01*
X123500602Y-109575826D01*
X123489980Y-109568935D01*
X123448493Y-109542100D01*
X123413746Y-109519881D01*
X123388785Y-109504205D01*
X123376652Y-109496999D01*
X123375968Y-109496764D01*
X123204912Y-109496764D01*
X123204907Y-109375078D01*
X123208686Y-109239370D01*
X123209422Y-109225027D01*
X123358359Y-109225027D01*
X123363474Y-109270407D01*
X123368149Y-109295776D01*
X123377867Y-109317819D01*
X123395923Y-109341952D01*
X123425609Y-109373590D01*
X123427194Y-109375199D01*
X123462377Y-109407656D01*
X123507215Y-109444517D01*
X123554272Y-109479801D01*
X123574993Y-109494106D01*
X123623503Y-109524890D01*
X123661537Y-109543988D01*
X123694079Y-109552400D01*
X123726116Y-109551126D01*
X123762632Y-109541165D01*
X123779327Y-109535079D01*
X123831188Y-109510196D01*
X123889279Y-109472261D01*
X123954830Y-109420313D01*
X124029070Y-109353390D01*
X124098700Y-109285246D01*
X124157644Y-109224799D01*
X124204983Y-109173378D01*
X124244080Y-109126744D01*
X124278298Y-109080657D01*
X124310997Y-109030877D01*
X124343795Y-108976172D01*
X124380087Y-108913744D01*
X124347943Y-108896488D01*
X124323552Y-108887166D01*
X124289872Y-108881593D01*
X124242431Y-108879149D01*
X124220800Y-108878916D01*
X124173655Y-108879999D01*
X124130723Y-108884339D01*
X124088748Y-108893073D01*
X124044474Y-108907335D01*
X123994646Y-108928259D01*
X123936008Y-108956982D01*
X123865304Y-108994638D01*
X123824668Y-109017028D01*
X123742502Y-109062463D01*
X123675100Y-109099203D01*
X123619857Y-109128462D01*
X123574165Y-109151453D01*
X123535416Y-109169390D01*
X123501003Y-109183487D01*
X123468319Y-109194958D01*
X123434757Y-109205016D01*
X123402079Y-109213751D01*
X123358359Y-109225027D01*
X123209422Y-109225027D01*
X123214117Y-109133460D01*
X123349602Y-109133460D01*
X123437701Y-109102371D01*
X123488334Y-109083484D01*
X123546872Y-109060109D01*
X123603157Y-109036342D01*
X123620800Y-109028531D01*
X123662821Y-109009176D01*
X123717208Y-108983474D01*
X123778455Y-108954061D01*
X123841058Y-108923573D01*
X123877541Y-108905584D01*
X124039282Y-108825388D01*
X123972541Y-108813831D01*
X123859929Y-108786254D01*
X123850811Y-108782795D01*
X124290817Y-108782795D01*
X124299776Y-108795314D01*
X124322435Y-108807332D01*
X124352578Y-108816508D01*
X124383990Y-108820499D01*
X124390735Y-108820437D01*
X124435671Y-108818600D01*
X124487740Y-108723937D01*
X124508560Y-108685226D01*
X124524738Y-108653481D01*
X124534437Y-108632422D01*
X124536277Y-108625744D01*
X124526084Y-108628476D01*
X124503124Y-108640306D01*
X124471040Y-108658902D01*
X124433477Y-108681931D01*
X124394080Y-108707063D01*
X124356493Y-108731965D01*
X124324361Y-108754305D01*
X124301327Y-108771752D01*
X124291038Y-108781974D01*
X124290817Y-108782795D01*
X123850811Y-108782795D01*
X123741712Y-108741408D01*
X123617088Y-108678939D01*
X123486113Y-108599058D01*
X123444372Y-108572081D01*
X123416438Y-108555620D01*
X123399861Y-108548543D01*
X123392187Y-108549719D01*
X123390800Y-108555102D01*
X123390106Y-108571294D01*
X123388183Y-108604000D01*
X123385268Y-108649784D01*
X123381599Y-108705213D01*
X123377412Y-108766854D01*
X123372944Y-108831273D01*
X123368434Y-108895036D01*
X123364117Y-108954710D01*
X123360231Y-109006860D01*
X123357014Y-109048054D01*
X123355508Y-109066030D01*
X123349602Y-109133460D01*
X123214117Y-109133460D01*
X123216283Y-109091220D01*
X123227728Y-108928120D01*
X123240707Y-108773600D01*
X123251768Y-108649504D01*
X123261149Y-108543151D01*
X123268968Y-108452362D01*
X123273258Y-108400288D01*
X123412445Y-108400288D01*
X123423868Y-108437608D01*
X123447207Y-108473171D01*
X123481039Y-108502471D01*
X123483208Y-108503831D01*
X123510002Y-108517208D01*
X123547508Y-108532186D01*
X123583183Y-108544128D01*
X123626312Y-108559350D01*
X123676333Y-108580331D01*
X123722891Y-108602706D01*
X123725702Y-108604185D01*
X123788032Y-108633859D01*
X123859326Y-108662441D01*
X123932254Y-108687335D01*
X123999491Y-108705945D01*
X124031933Y-108712655D01*
X124107300Y-108717964D01*
X124189807Y-108710453D01*
X124265800Y-108692676D01*
X124335378Y-108665644D01*
X124403244Y-108627313D01*
X124472664Y-108575502D01*
X124546906Y-108508029D01*
X124556472Y-108498600D01*
X124630633Y-108419090D01*
X124696814Y-108334891D01*
X124758077Y-108241575D01*
X124817482Y-108134715D01*
X124842767Y-108084418D01*
X124868441Y-108030590D01*
X124885187Y-107991783D01*
X124893880Y-107965585D01*
X124895396Y-107949586D01*
X124893589Y-107944418D01*
X124886681Y-107938007D01*
X124873373Y-107933661D01*
X124850504Y-107931079D01*
X124814910Y-107929958D01*
X124763428Y-107929995D01*
X124744701Y-107930183D01*
X124678621Y-107932456D01*
X124615263Y-107938214D01*
X124552113Y-107948204D01*
X124486658Y-107963172D01*
X124416382Y-107983865D01*
X124338772Y-108011029D01*
X124251312Y-108045410D01*
X124151490Y-108087756D01*
X124036790Y-108138812D01*
X124026985Y-108143255D01*
X123903606Y-108196593D01*
X123792523Y-108238825D01*
X123690245Y-108271125D01*
X123593282Y-108294668D01*
X123555401Y-108301861D01*
X123498593Y-108313415D01*
X123456928Y-108325358D01*
X123432682Y-108337022D01*
X123431026Y-108338395D01*
X123414357Y-108365715D01*
X123412445Y-108400288D01*
X123273258Y-108400288D01*
X123275345Y-108374961D01*
X123280398Y-108308770D01*
X123284247Y-108251613D01*
X123287009Y-108201311D01*
X123288805Y-108155689D01*
X123289751Y-108112569D01*
X123289968Y-108069773D01*
X123289574Y-108025125D01*
X123288688Y-107976448D01*
X123287429Y-107921564D01*
X123287358Y-107918600D01*
X123284220Y-107813396D01*
X123279843Y-107719555D01*
X123273707Y-107633279D01*
X123269272Y-107589798D01*
X123415022Y-107589798D01*
X123416371Y-107622376D01*
X123420243Y-107663474D01*
X123422965Y-107685030D01*
X123427115Y-107726464D01*
X123430638Y-107783703D01*
X123433370Y-107852556D01*
X123435145Y-107928833D01*
X123435799Y-108008344D01*
X123435800Y-108010667D01*
X123435854Y-108084502D01*
X123436157Y-108140688D01*
X123436913Y-108181575D01*
X123438328Y-108209514D01*
X123440610Y-108226854D01*
X123443964Y-108235948D01*
X123448597Y-108239144D01*
X123454715Y-108238794D01*
X123455800Y-108238576D01*
X123474151Y-108234451D01*
X123506302Y-108226941D01*
X123546614Y-108217368D01*
X123565800Y-108212767D01*
X123608377Y-108202132D01*
X123649633Y-108190839D01*
X123691530Y-108178128D01*
X123736031Y-108163241D01*
X123785096Y-108145419D01*
X123840690Y-108123904D01*
X123904775Y-108097936D01*
X123979312Y-108066758D01*
X124066265Y-108029610D01*
X124167595Y-107985733D01*
X124280800Y-107936324D01*
X124325800Y-107916632D01*
X124265800Y-107904807D01*
X124186112Y-107886699D01*
X124106864Y-107863448D01*
X124056005Y-107845015D01*
X124646300Y-107845015D01*
X124652051Y-107848184D01*
X124674745Y-107850801D01*
X124711326Y-107852658D01*
X124758739Y-107853550D01*
X124773800Y-107853600D01*
X124829457Y-107853344D01*
X124868714Y-107852270D01*
X124895166Y-107849922D01*
X124912411Y-107845840D01*
X124924044Y-107839566D01*
X124930800Y-107833600D01*
X124947143Y-107804179D01*
X124951235Y-107771100D01*
X124953641Y-107731922D01*
X124958980Y-107691090D01*
X124960001Y-107685503D01*
X124964022Y-107658627D01*
X124961929Y-107647396D01*
X124955390Y-107647373D01*
X124943023Y-107654232D01*
X124917354Y-107669837D01*
X124881821Y-107691989D01*
X124839863Y-107718489D01*
X124794918Y-107747138D01*
X124750424Y-107775739D01*
X124709819Y-107802093D01*
X124676543Y-107824001D01*
X124654033Y-107839265D01*
X124646300Y-107845015D01*
X124056005Y-107845015D01*
X124025251Y-107833869D01*
X123938469Y-107796778D01*
X123843711Y-107750989D01*
X123738174Y-107695317D01*
X123638757Y-107639828D01*
X123568478Y-107601341D01*
X123512993Y-107574518D01*
X123471116Y-107558992D01*
X123441662Y-107554399D01*
X123423445Y-107560374D01*
X123416512Y-107571354D01*
X123415022Y-107589798D01*
X123269272Y-107589798D01*
X123265291Y-107550775D01*
X123262125Y-107527481D01*
X123594152Y-107527481D01*
X123597122Y-107531521D01*
X123604089Y-107536183D01*
X123608626Y-107539203D01*
X123646236Y-107563840D01*
X123687759Y-107587354D01*
X123735637Y-107610778D01*
X123792316Y-107635147D01*
X123860241Y-107661495D01*
X123941856Y-107690856D01*
X124039605Y-107724264D01*
X124070279Y-107734511D01*
X124162035Y-107764864D01*
X124237175Y-107789062D01*
X124297997Y-107807455D01*
X124346796Y-107820392D01*
X124385871Y-107828221D01*
X124417518Y-107831293D01*
X124444035Y-107829956D01*
X124467719Y-107824559D01*
X124490866Y-107815452D01*
X124515775Y-107802984D01*
X124516892Y-107802393D01*
X124554835Y-107779965D01*
X124598678Y-107750624D01*
X124639204Y-107720552D01*
X124640800Y-107719283D01*
X124720706Y-107657119D01*
X124788031Y-107608248D01*
X124842334Y-107572970D01*
X124883177Y-107551587D01*
X124891318Y-107548417D01*
X124949617Y-107519876D01*
X124995277Y-107480984D01*
X125019630Y-107445520D01*
X125029875Y-107419299D01*
X125041940Y-107379028D01*
X125055090Y-107328308D01*
X125068587Y-107270739D01*
X125081697Y-107209920D01*
X125093683Y-107149454D01*
X125103809Y-107092938D01*
X125111338Y-107043974D01*
X125115535Y-107006163D01*
X125115662Y-106983103D01*
X125114867Y-106979776D01*
X125107209Y-106973879D01*
X125087965Y-106970555D01*
X125054371Y-106969583D01*
X125003667Y-106970740D01*
X125002867Y-106970769D01*
X124920469Y-106975950D01*
X124846950Y-106986104D01*
X124778221Y-107002654D01*
X124710192Y-107027023D01*
X124638772Y-107060635D01*
X124559874Y-107104914D01*
X124485800Y-107150773D01*
X124384891Y-107212294D01*
X124285030Y-107266921D01*
X124182228Y-107316421D01*
X124072496Y-107362559D01*
X123951847Y-107407101D01*
X123816292Y-107451813D01*
X123780800Y-107462857D01*
X123714592Y-107483206D01*
X123665294Y-107498451D01*
X123630752Y-107509547D01*
X123608816Y-107517448D01*
X123597333Y-107523108D01*
X123594152Y-107527481D01*
X123262125Y-107527481D01*
X123254075Y-107468245D01*
X123239540Y-107381893D01*
X123221166Y-107287925D01*
X123198432Y-107182545D01*
X123170819Y-107061956D01*
X123168866Y-107053600D01*
X123150838Y-106978283D01*
X123135410Y-106918864D01*
X123121255Y-106871629D01*
X123107047Y-106832864D01*
X123091461Y-106798855D01*
X123073171Y-106765889D01*
X123056630Y-106739223D01*
X123018419Y-106690617D01*
X122976424Y-106660454D01*
X122927645Y-106647191D01*
X122879053Y-106648002D01*
X122845871Y-106650280D01*
X122825387Y-106648610D01*
X122820800Y-106645196D01*
X122825708Y-106636918D01*
X123182639Y-106636918D01*
X123187968Y-106655351D01*
X123200313Y-106684935D01*
X123220604Y-106728656D01*
X123226545Y-106741135D01*
X123261752Y-106819341D01*
X123286493Y-106885712D01*
X123302015Y-106944619D01*
X123309569Y-107000435D01*
X123310800Y-107035993D01*
X123312134Y-107074467D01*
X123317068Y-107098837D01*
X123327000Y-107114876D01*
X123330800Y-107118600D01*
X123343424Y-107135662D01*
X123349595Y-107161252D01*
X123351019Y-107192649D01*
X123356026Y-107242471D01*
X123368926Y-107287422D01*
X123370502Y-107291037D01*
X123390278Y-107326463D01*
X123413755Y-107356729D01*
X123436828Y-107377248D01*
X123453297Y-107383600D01*
X123467186Y-107381242D01*
X123496811Y-107374732D01*
X123538539Y-107364916D01*
X123588741Y-107352639D01*
X123621251Y-107344486D01*
X123774170Y-107302659D01*
X123925091Y-107254766D01*
X124078201Y-107199273D01*
X124237689Y-107134643D01*
X124407742Y-107059338D01*
X124443656Y-107042736D01*
X124581513Y-106978600D01*
X124538656Y-106965928D01*
X124514630Y-106959412D01*
X124475382Y-106949435D01*
X124425176Y-106937052D01*
X124368273Y-106923317D01*
X124325800Y-106913243D01*
X124239975Y-106892013D01*
X124947467Y-106892013D01*
X124955462Y-106896156D01*
X124961747Y-106897630D01*
X124989714Y-106903724D01*
X125005800Y-106907276D01*
X125028117Y-106909710D01*
X125059740Y-106910406D01*
X125070664Y-106910165D01*
X125098744Y-106907714D01*
X125116157Y-106899553D01*
X125130602Y-106880709D01*
X125138938Y-106866053D01*
X125155984Y-106823511D01*
X125166115Y-106768516D01*
X125168205Y-106746078D01*
X125174061Y-106668649D01*
X125104930Y-106730314D01*
X125066431Y-106765428D01*
X125026584Y-106803019D01*
X124992783Y-106836087D01*
X124986747Y-106842209D01*
X124961576Y-106868440D01*
X124948993Y-106883908D01*
X124947467Y-106892013D01*
X124239975Y-106892013D01*
X124218108Y-106886604D01*
X124118984Y-106859044D01*
X124024337Y-106829067D01*
X123930074Y-106795176D01*
X123832105Y-106755876D01*
X123726339Y-106709672D01*
X123608684Y-106655068D01*
X123572805Y-106637951D01*
X123506907Y-106607131D01*
X123456060Y-106585236D01*
X123417895Y-106571363D01*
X123390044Y-106564610D01*
X123377550Y-106563600D01*
X123340485Y-106568678D01*
X123288523Y-106583463D01*
X123223861Y-106607277D01*
X123189309Y-106621567D01*
X123183396Y-106626652D01*
X123182639Y-106636918D01*
X122825708Y-106636918D01*
X122827376Y-106634104D01*
X122844823Y-106613076D01*
X122869718Y-106586166D01*
X122876650Y-106579050D01*
X122915604Y-106532212D01*
X123110767Y-106532212D01*
X123173283Y-106507029D01*
X123206271Y-106493102D01*
X123224322Y-106484652D01*
X123536933Y-106484652D01*
X123542189Y-106491404D01*
X123562894Y-106504782D01*
X123596190Y-106523360D01*
X123639217Y-106545714D01*
X123689116Y-106570419D01*
X123743030Y-106596049D01*
X123798098Y-106621179D01*
X123851463Y-106644384D01*
X123885427Y-106658380D01*
X123940136Y-106678731D01*
X124008437Y-106701758D01*
X124084769Y-106725800D01*
X124163572Y-106749198D01*
X124239288Y-106770292D01*
X124306355Y-106787422D01*
X124350800Y-106797308D01*
X124430012Y-106811699D01*
X124509373Y-106823581D01*
X124585718Y-106832691D01*
X124655884Y-106838770D01*
X124716706Y-106841557D01*
X124765020Y-106840789D01*
X124797663Y-106836207D01*
X124802649Y-106834576D01*
X124819180Y-106824507D01*
X124847461Y-106803535D01*
X124884465Y-106774231D01*
X124927161Y-106739169D01*
X124972522Y-106700919D01*
X125017519Y-106662054D01*
X125059122Y-106625145D01*
X125094305Y-106592765D01*
X125120036Y-106567486D01*
X125129501Y-106557013D01*
X125157920Y-106508505D01*
X125173319Y-106451584D01*
X125173831Y-106394296D01*
X125170890Y-106378600D01*
X125164323Y-106341592D01*
X125161096Y-106304532D01*
X125161038Y-106301100D01*
X125159127Y-106276190D01*
X125151564Y-106265556D01*
X125138300Y-106263559D01*
X125102231Y-106262322D01*
X125050267Y-106258952D01*
X124986356Y-106253820D01*
X124914444Y-106247294D01*
X124838479Y-106239742D01*
X124762409Y-106231534D01*
X124690181Y-106223037D01*
X124650800Y-106218017D01*
X124557695Y-106206508D01*
X124480801Y-106198938D01*
X124416737Y-106195220D01*
X124362121Y-106195268D01*
X124313573Y-106198993D01*
X124267712Y-106206312D01*
X124259511Y-106207997D01*
X124238363Y-106214066D01*
X124202194Y-106226196D01*
X124153589Y-106243398D01*
X124095131Y-106264682D01*
X124029406Y-106289058D01*
X123958999Y-106315538D01*
X123886494Y-106343131D01*
X123814476Y-106370848D01*
X123745529Y-106397699D01*
X123682239Y-106422694D01*
X123627190Y-106444845D01*
X123582967Y-106463161D01*
X123552154Y-106476652D01*
X123537337Y-106484330D01*
X123536933Y-106484652D01*
X123224322Y-106484652D01*
X123231813Y-106481145D01*
X123244044Y-106473978D01*
X123240541Y-106465382D01*
X123223232Y-106450771D01*
X123199044Y-106435230D01*
X123145800Y-106404349D01*
X123134836Y-106441474D01*
X123125613Y-106473950D01*
X123117849Y-106503263D01*
X123117320Y-106505406D01*
X123110767Y-106532212D01*
X122915604Y-106532212D01*
X122924313Y-106521740D01*
X122960826Y-106459632D01*
X122983027Y-106398391D01*
X122986120Y-106382973D01*
X122987193Y-106369577D01*
X122983241Y-106369909D01*
X122973134Y-106385338D01*
X122955743Y-106417230D01*
X122952095Y-106424170D01*
X122932010Y-106460554D01*
X122913390Y-106490905D01*
X122899452Y-106510078D01*
X122896595Y-106512939D01*
X122874749Y-106520378D01*
X122842322Y-106519908D01*
X122806673Y-106512467D01*
X122775157Y-106498992D01*
X122772107Y-106497082D01*
X122759908Y-106487713D01*
X122753461Y-106476267D01*
X122751739Y-106457468D01*
X122753716Y-106426037D01*
X122755185Y-106410088D01*
X122760063Y-106367957D01*
X122764557Y-106338600D01*
X122990800Y-106338600D01*
X122995800Y-106343600D01*
X123000800Y-106338600D01*
X122995800Y-106333600D01*
X122990800Y-106338600D01*
X122764557Y-106338600D01*
X122766141Y-106328251D01*
X122771641Y-106301554D01*
X122785537Y-106266988D01*
X122806355Y-106235668D01*
X122829805Y-106212804D01*
X122851599Y-106203610D01*
X122852237Y-106203600D01*
X122870238Y-106209220D01*
X122897984Y-106223654D01*
X122929873Y-106243257D01*
X122960302Y-106264384D01*
X122983665Y-106283393D01*
X122994093Y-106295850D01*
X122998044Y-106297280D01*
X123000010Y-106283533D01*
X122992697Y-106231805D01*
X122969824Y-106183586D01*
X122934889Y-106143772D01*
X122891393Y-106117260D01*
X122878052Y-106112860D01*
X122844014Y-106108027D01*
X122798836Y-106107512D01*
X122767784Y-106109583D01*
X122721501Y-106116883D01*
X122687429Y-106130433D01*
X122662144Y-106153531D01*
X122642223Y-106189473D01*
X122624246Y-106241557D01*
X122621678Y-106250364D01*
X122603025Y-106314404D01*
X122588462Y-106361996D01*
X122576988Y-106396033D01*
X122567602Y-106419409D01*
X122559301Y-106435015D01*
X122556149Y-106439611D01*
X122547288Y-106449345D01*
X122539898Y-106447737D01*
X122530591Y-106432110D01*
X122521504Y-106412261D01*
X122499340Y-106375925D01*
X122468142Y-106350826D01*
X122423505Y-106333916D01*
X122400800Y-106328743D01*
X122380394Y-106323528D01*
X122344636Y-106313204D01*
X122297186Y-106298875D01*
X122241701Y-106281646D01*
X122181839Y-106262623D01*
X122180800Y-106262289D01*
X122068954Y-106227902D01*
X121949699Y-106194048D01*
X121828426Y-106162104D01*
X121710528Y-106133443D01*
X121601395Y-106109442D01*
X121520800Y-106093951D01*
X121458435Y-106083494D01*
X121406364Y-106075414D01*
X122132503Y-106075414D01*
X122142267Y-106090092D01*
X122143300Y-106090924D01*
X122156559Y-106098096D01*
X122185175Y-106111594D01*
X122226038Y-106130055D01*
X122276041Y-106152116D01*
X122332077Y-106176413D01*
X122391037Y-106201585D01*
X122449814Y-106226268D01*
X122485800Y-106241137D01*
X122518318Y-106255195D01*
X122543562Y-106267425D01*
X122555108Y-106274482D01*
X122565248Y-106272051D01*
X122580346Y-106254086D01*
X122588426Y-106240947D01*
X122604590Y-106213537D01*
X122617957Y-106192653D01*
X122621978Y-106187180D01*
X122620015Y-106178576D01*
X122603606Y-106163970D01*
X122571612Y-106142530D01*
X122522893Y-106113424D01*
X122513660Y-106108109D01*
X122459644Y-106076437D01*
X122402126Y-106041553D01*
X122348344Y-106007905D01*
X122309082Y-105982336D01*
X122222365Y-105924136D01*
X122176582Y-105985745D01*
X122148790Y-106025991D01*
X122134387Y-106054964D01*
X122132503Y-106075414D01*
X121406364Y-106075414D01*
X121389995Y-106072874D01*
X121319250Y-106062592D01*
X121249968Y-106053145D01*
X121185921Y-106045034D01*
X121130879Y-106038757D01*
X121088610Y-106034815D01*
X121065621Y-106033671D01*
X121035993Y-106038389D01*
X121003897Y-106050515D01*
X120975198Y-106066866D01*
X120955765Y-106084260D01*
X120950800Y-106095960D01*
X120946881Y-106102107D01*
X120940386Y-106097186D01*
X120936006Y-106083657D01*
X120931664Y-106054370D01*
X120927848Y-106013559D01*
X120925044Y-105965461D01*
X120924928Y-105962686D01*
X120921783Y-105892807D01*
X120918445Y-105839810D01*
X120914387Y-105800582D01*
X120909078Y-105772009D01*
X120901990Y-105750976D01*
X120892594Y-105734370D01*
X120884305Y-105723647D01*
X120865576Y-105704944D01*
X120845365Y-105696082D01*
X120815110Y-105693627D01*
X120809385Y-105693599D01*
X120745881Y-105699019D01*
X120675487Y-105713752D01*
X120607605Y-105735515D01*
X120570800Y-105751588D01*
X120524129Y-105782433D01*
X120495183Y-105819961D01*
X120483974Y-105864624D01*
X120490514Y-105916877D01*
X120514815Y-105977172D01*
X120556890Y-106045962D01*
X120579582Y-106077124D01*
X120605240Y-106112352D01*
X120619291Y-106135840D01*
X120623338Y-106150864D01*
X120619949Y-106159624D01*
X120597675Y-106172552D01*
X120567620Y-106167111D01*
X120529865Y-106143321D01*
X120516468Y-106132099D01*
X120477673Y-106103003D01*
X120447431Y-106091619D01*
X120442560Y-106091444D01*
X120422231Y-106096231D01*
X120388656Y-106108497D01*
X120346209Y-106126260D01*
X120299267Y-106147537D01*
X120252202Y-106170349D01*
X120209391Y-106192713D01*
X120175800Y-106212272D01*
X120109689Y-106258513D01*
X120061234Y-106302212D01*
X120031359Y-106342531D01*
X120030543Y-106344102D01*
X120018734Y-106368475D01*
X120016095Y-106381347D01*
X120022533Y-106388941D01*
X120029807Y-106393068D01*
X120050989Y-106413221D01*
X120069879Y-106445956D01*
X120083365Y-106483873D01*
X120088332Y-106519570D01*
X120087481Y-106530173D01*
X120071038Y-106575211D01*
X120039035Y-106617483D01*
X119995743Y-106651600D01*
X119987720Y-106656120D01*
X119959795Y-106667107D01*
X119923267Y-106674037D01*
X119875429Y-106677070D01*
X119813576Y-106676362D01*
X119734999Y-106672073D01*
X119725859Y-106671435D01*
X119685918Y-106668600D01*
X119637777Y-106758600D01*
X119611403Y-106809228D01*
X119581695Y-106868304D01*
X119553541Y-106926043D01*
X119542860Y-106948600D01*
X119521709Y-106995058D01*
X119507865Y-107030316D01*
X119499581Y-107061006D01*
X119495109Y-107093762D01*
X119492703Y-107135218D01*
X119492522Y-107139766D01*
X119497143Y-107246621D01*
X119519927Y-107345375D01*
X119561219Y-107436920D01*
X119621365Y-107522143D01*
X119655771Y-107559787D01*
X119733102Y-107626140D01*
X119815961Y-107674223D01*
X119903023Y-107703633D01*
X119992966Y-107713967D01*
X120084465Y-107704821D01*
X120110800Y-107698549D01*
X120144421Y-107691692D01*
X120190893Y-107685099D01*
X120243078Y-107679687D01*
X120277027Y-107677216D01*
X120388255Y-107670697D01*
X120347797Y-107606170D01*
X120326301Y-107574421D01*
X120306742Y-107549921D01*
X120292904Y-107537340D01*
X120291570Y-107536774D01*
X120239485Y-107516370D01*
X120198398Y-107491610D01*
X120171211Y-107464716D01*
X120160826Y-107437913D01*
X120160800Y-107436577D01*
X120167821Y-107427496D01*
X120187017Y-107430757D01*
X120215588Y-107445445D01*
X120240332Y-107462538D01*
X120274864Y-107488600D01*
X120242177Y-107440846D01*
X120209490Y-107393093D01*
X120226230Y-107385429D01*
X120370378Y-107385429D01*
X120402315Y-107442014D01*
X120436677Y-107501387D01*
X120464395Y-107543791D01*
X120487821Y-107570119D01*
X120509304Y-107581265D01*
X120531196Y-107578124D01*
X120555847Y-107561588D01*
X120585608Y-107532552D01*
X120599914Y-107517153D01*
X120626969Y-107486414D01*
X120647848Y-107460382D01*
X120659441Y-107443042D01*
X120660800Y-107439129D01*
X120651565Y-107427482D01*
X120626767Y-107415086D01*
X120590760Y-107402970D01*
X120547903Y-107392166D01*
X120502550Y-107383703D01*
X120459058Y-107378613D01*
X120421784Y-107377925D01*
X120408089Y-107379345D01*
X120370378Y-107385429D01*
X120226230Y-107385429D01*
X120265691Y-107367363D01*
X120337253Y-107344522D01*
X120418427Y-107335574D01*
X120504685Y-107340265D01*
X120591500Y-107358343D01*
X120674343Y-107389556D01*
X120675800Y-107390251D01*
X120711827Y-107409616D01*
X120731872Y-107426288D01*
X120739114Y-107442201D01*
X120734648Y-107467420D01*
X120717291Y-107502275D01*
X120689365Y-107543417D01*
X120653191Y-107587498D01*
X120611093Y-107631172D01*
X120602303Y-107639436D01*
X120536485Y-107700273D01*
X120569414Y-107741850D01*
X120603334Y-107778483D01*
X120650008Y-107820446D01*
X120704442Y-107863856D01*
X120761639Y-107904828D01*
X120816604Y-107939477D01*
X120840378Y-107952542D01*
X120953674Y-108002500D01*
X121073093Y-108037756D01*
X121201596Y-108058956D01*
X121342145Y-108066743D01*
X121365800Y-108066787D01*
X121460821Y-108063063D01*
X121543820Y-108051843D01*
X121621877Y-108031550D01*
X121702073Y-108000606D01*
X121738821Y-107983708D01*
X121827079Y-107932345D01*
X121899474Y-107869866D01*
X121956509Y-107795499D01*
X121998687Y-107708473D01*
X122026510Y-107608016D01*
X122038189Y-107524178D01*
X122045800Y-107439756D01*
X122085363Y-107497260D01*
X122107973Y-107532870D01*
X122120778Y-107562691D01*
X122127105Y-107596015D01*
X122129029Y-107619197D01*
X122129944Y-107660423D01*
X122125145Y-107692254D01*
X122112737Y-107724930D01*
X122107401Y-107736115D01*
X122068448Y-107798878D01*
X122013854Y-107863093D01*
X121947404Y-107925449D01*
X121872881Y-107982635D01*
X121794070Y-108031338D01*
X121739447Y-108058144D01*
X121673537Y-108086858D01*
X121818520Y-108327729D01*
X121858740Y-108395104D01*
X121897638Y-108461291D01*
X121933371Y-108523076D01*
X121964096Y-108577245D01*
X121987970Y-108620585D01*
X122002529Y-108648600D01*
X122031462Y-108714956D01*
X122060108Y-108793078D01*
X122085790Y-108874876D01*
X122105830Y-108952258D01*
X122110849Y-108975956D01*
X122122158Y-109033313D01*
X122163979Y-109012276D01*
X122184956Y-109000933D01*
X122219876Y-108981157D01*
X122265529Y-108954804D01*
X122318708Y-108923730D01*
X122376204Y-108889792D01*
X122395800Y-108878149D01*
X122456055Y-108842878D01*
X122515128Y-108809378D01*
X122569291Y-108779682D01*
X122614814Y-108755825D01*
X122647971Y-108739839D01*
X122654099Y-108737226D01*
X122690069Y-108723131D01*
X122713344Y-108716355D01*
X122729526Y-108716139D01*
X122744217Y-108721726D01*
X122749099Y-108724380D01*
X122768669Y-108740717D01*
X122775519Y-108764691D01*
X122775800Y-108773983D01*
X122774975Y-108793063D01*
X122769468Y-108804503D01*
X122754730Y-108811788D01*
X122726215Y-108818400D01*
X122714832Y-108820666D01*
X122668710Y-108831224D01*
X122624456Y-108844861D01*
X122578619Y-108863147D01*
X122527744Y-108887652D01*
X122468381Y-108919945D01*
X122397075Y-108961597D01*
X122372791Y-108976181D01*
X122208953Y-109076304D01*
X122061688Y-109169058D01*
X121929446Y-109255539D01*
X121810680Y-109336840D01*
X121703841Y-109414058D01*
X121607381Y-109488287D01*
X121519751Y-109560623D01*
X121439403Y-109632160D01*
X121421205Y-109649167D01*
X121379836Y-109687165D01*
X121336302Y-109725458D01*
X121296735Y-109758729D01*
X121275094Y-109775871D01*
X121218013Y-109824718D01*
X121175594Y-109874938D01*
X121143043Y-109932551D01*
X121134228Y-109952804D01*
X121115653Y-110015358D01*
X121113083Y-110071677D01*
X121126051Y-110119681D01*
X121154093Y-110157291D01*
X121184359Y-110177246D01*
X121258608Y-110204297D01*
X121345549Y-110222296D01*
X121439723Y-110230586D01*
X121535669Y-110228511D01*
X121575800Y-110224309D01*
X121670979Y-110206535D01*
X121771169Y-110177309D01*
X121877773Y-110135986D01*
X121992191Y-110081917D01*
X122115825Y-110014455D01*
X122250078Y-109932953D01*
X122355777Y-109864095D01*
X122400649Y-109835368D01*
X122450963Y-109805024D01*
X122495800Y-109779648D01*
X122537682Y-109753638D01*
X122583948Y-109719578D01*
X122625528Y-109684215D01*
X122630800Y-109679216D01*
X122673403Y-109639151D01*
X122705814Y-109611726D01*
X122731300Y-109594785D01*
X122753129Y-109586173D01*
X122774565Y-109583735D01*
X122775525Y-109583736D01*
X122816614Y-109587349D01*
X122842816Y-109599129D01*
X122858298Y-109621160D01*
X122860170Y-109626094D01*
X122867935Y-109661438D01*
X122870423Y-109702172D01*
X122867618Y-109739819D01*
X122860448Y-109764257D01*
X122842471Y-109781593D01*
X122819237Y-109782215D01*
X122795100Y-109766953D01*
X122781171Y-109749200D01*
X122759910Y-109714800D01*
X122719562Y-109729036D01*
X122641388Y-109762773D01*
X122568528Y-109807937D01*
X122496111Y-109867729D01*
X122468660Y-109893997D01*
X122426205Y-109937520D01*
X122394893Y-109974095D01*
X122370417Y-110009472D01*
X122348474Y-110049406D01*
X122341139Y-110064387D01*
X122300319Y-110168210D01*
X122276764Y-110272193D01*
X122270973Y-110350282D01*
X122269918Y-110394041D01*
X122265694Y-110421540D01*
X122256266Y-110436488D01*
X122239596Y-110442592D01*
X122219730Y-110443600D01*
X122180800Y-110443600D01*
X122179444Y-110386100D01*
X122178331Y-110351902D01*
X122176391Y-110304715D01*
X122173926Y-110251515D01*
X122171944Y-110212446D01*
X122165800Y-110096293D01*
X122000814Y-110175970D01*
X121896878Y-110224443D01*
X121806172Y-110262466D01*
X121725317Y-110290733D01*
X121650939Y-110309941D01*
X121579661Y-110320786D01*
X121508106Y-110323964D01*
X121432898Y-110320171D01*
X121350661Y-110310104D01*
X121350422Y-110310068D01*
X121297557Y-110301201D01*
X121255857Y-110291094D01*
X121217233Y-110277081D01*
X121173597Y-110256494D01*
X121148355Y-110243418D01*
X121089383Y-110209903D01*
X121045736Y-110178512D01*
X121013558Y-110145709D01*
X120988989Y-110107959D01*
X120979473Y-110088600D01*
X120964133Y-110043238D01*
X120962946Y-110000945D01*
X120976484Y-109956147D01*
X120997140Y-109916714D01*
X121015874Y-109889159D01*
X121045175Y-109850876D01*
X121081838Y-109805641D01*
X121122661Y-109757231D01*
X121164440Y-109709422D01*
X121203972Y-109665990D01*
X121238052Y-109630711D01*
X121247642Y-109621421D01*
X121280790Y-109592331D01*
X121327406Y-109554608D01*
X121384274Y-109510647D01*
X121448179Y-109462842D01*
X121515903Y-109413586D01*
X121584231Y-109365275D01*
X121649946Y-109320303D01*
X121670800Y-109306412D01*
X121746008Y-109256684D01*
X121806391Y-109216663D01*
X121853819Y-109185041D01*
X121890162Y-109160512D01*
X121917287Y-109141769D01*
X121937066Y-109127506D01*
X121951368Y-109116414D01*
X121962061Y-109107188D01*
X121971016Y-109098520D01*
X121976981Y-109092366D01*
X121994913Y-109068395D01*
X122003114Y-109041535D01*
X122001460Y-109008113D01*
X121989823Y-108964458D01*
X121970860Y-108913749D01*
X121957820Y-108884586D01*
X121937080Y-108842132D01*
X121909931Y-108788748D01*
X121877662Y-108726797D01*
X121841564Y-108658644D01*
X121802928Y-108586649D01*
X121763045Y-108513177D01*
X121723206Y-108440590D01*
X121684700Y-108371251D01*
X121648819Y-108307522D01*
X121616853Y-108251768D01*
X121590094Y-108206350D01*
X121569830Y-108173632D01*
X121557354Y-108155976D01*
X121556367Y-108154906D01*
X121533447Y-108139190D01*
X121502463Y-108132356D01*
X121460169Y-108134231D01*
X121403314Y-108144642D01*
X121395800Y-108146354D01*
X121367098Y-108152181D01*
X121341034Y-108154812D01*
X121312087Y-108154104D01*
X121274734Y-108149909D01*
X121223452Y-108142082D01*
X121221396Y-108141750D01*
X121124953Y-108121965D01*
X121021782Y-108093531D01*
X120919714Y-108058954D01*
X120826579Y-108020739D01*
X120792543Y-108004476D01*
X120711531Y-107963744D01*
X120701558Y-108001172D01*
X120696328Y-108024303D01*
X120688704Y-108062550D01*
X120679566Y-108111296D01*
X120669793Y-108165925D01*
X120665903Y-108188388D01*
X120656519Y-108240920D01*
X120647691Y-108286339D01*
X120640175Y-108321038D01*
X120634729Y-108341414D01*
X120633011Y-108345111D01*
X120616325Y-108352780D01*
X120584391Y-108360895D01*
X120541929Y-108368731D01*
X120493656Y-108375561D01*
X120444292Y-108380657D01*
X120398554Y-108383295D01*
X120383721Y-108383502D01*
X120334362Y-108382250D01*
X120297743Y-108377811D01*
X120266703Y-108368964D01*
X120245391Y-108359931D01*
X120188897Y-108323894D01*
X120148147Y-108276058D01*
X120129543Y-108236354D01*
X120124273Y-108209989D01*
X120120253Y-108167891D01*
X120117548Y-108114292D01*
X120116743Y-108077302D01*
X120254068Y-108077302D01*
X120254200Y-108145133D01*
X120258408Y-108197111D01*
X120268092Y-108235292D01*
X120284653Y-108261728D01*
X120309492Y-108278474D01*
X120344008Y-108287583D01*
X120389603Y-108291110D01*
X120447677Y-108291107D01*
X120460710Y-108290868D01*
X120575621Y-108288600D01*
X120608826Y-108190696D01*
X120636384Y-108092888D01*
X120648439Y-108007028D01*
X120644923Y-107932341D01*
X120625767Y-107868054D01*
X120590902Y-107813394D01*
X120573592Y-107795056D01*
X120547681Y-107771765D01*
X120530336Y-107762391D01*
X120519222Y-107768409D01*
X120512007Y-107791295D01*
X120506355Y-107832526D01*
X120505761Y-107837948D01*
X120494820Y-107935030D01*
X120484316Y-108020722D01*
X120474476Y-108093515D01*
X120465524Y-108151904D01*
X120457687Y-108194380D01*
X120451190Y-108219436D01*
X120447731Y-108225707D01*
X120424633Y-108232213D01*
X120405585Y-108221530D01*
X120390849Y-108196108D01*
X120380689Y-108158398D01*
X120375368Y-108110850D01*
X120375150Y-108055913D01*
X120380298Y-107996038D01*
X120391076Y-107933675D01*
X120407747Y-107871273D01*
X120409155Y-107866924D01*
X120420746Y-107829160D01*
X120430338Y-107793686D01*
X120434416Y-107775465D01*
X120437071Y-107753390D01*
X120432370Y-107745950D01*
X120423176Y-107747146D01*
X120403936Y-107750903D01*
X120372804Y-107755474D01*
X120348293Y-107758501D01*
X120314457Y-107764332D01*
X120287799Y-107772478D01*
X120277271Y-107778557D01*
X120272000Y-107789798D01*
X120267536Y-107813287D01*
X120263700Y-107850872D01*
X120260312Y-107904404D01*
X120257193Y-107975732D01*
X120256612Y-107991566D01*
X120254068Y-108077302D01*
X120116743Y-108077302D01*
X120116223Y-108053423D01*
X120116344Y-107989516D01*
X120117976Y-107926801D01*
X120121185Y-107869512D01*
X120123465Y-107843600D01*
X120131131Y-107768600D01*
X120033465Y-107767966D01*
X119994742Y-107767383D01*
X119963697Y-107765449D01*
X119935462Y-107761024D01*
X119905168Y-107752969D01*
X119867947Y-107740146D01*
X119818930Y-107721413D01*
X119795800Y-107712352D01*
X119655800Y-107657373D01*
X119652798Y-108082986D01*
X119652552Y-108255877D01*
X119654198Y-108425693D01*
X119657640Y-108590658D01*
X119662777Y-108748995D01*
X119669513Y-108898929D01*
X119677749Y-109038681D01*
X119687386Y-109166476D01*
X119698326Y-109280537D01*
X119710471Y-109379088D01*
X119723722Y-109460352D01*
X119730937Y-109494837D01*
X119738224Y-109530102D01*
X119743554Y-109565977D01*
X119747200Y-109606454D01*
X119749438Y-109655526D01*
X119750544Y-109717185D01*
X119750800Y-109782834D01*
X119751125Y-109856572D01*
X119752211Y-109912921D01*
X119754223Y-109954480D01*
X119757328Y-109983852D01*
X119761691Y-110003638D01*
X119765464Y-110012951D01*
X119774980Y-110045077D01*
X119774734Y-110088749D01*
X119774085Y-110094954D01*
X119767502Y-110138404D01*
X119758260Y-110165338D01*
X119744249Y-110179230D01*
X119723361Y-110183558D01*
X119720301Y-110183600D01*
X119692457Y-110174378D01*
X119669352Y-110149700D01*
X119654144Y-110114047D01*
X119649840Y-110083600D01*
X119647101Y-110051669D01*
X119641983Y-110024156D01*
X119635160Y-109999712D01*
X119595480Y-110035112D01*
X119556186Y-110067486D01*
X119510028Y-110101374D01*
X119461512Y-110133882D01*
X119415144Y-110162116D01*
X119375433Y-110183184D01*
X119348248Y-110193854D01*
X119322540Y-110200880D01*
X119282844Y-110212162D01*
X119234331Y-110226214D01*
X119182170Y-110241549D01*
X119175800Y-110243438D01*
X119102666Y-110264685D01*
X119044083Y-110280362D01*
X118995644Y-110291274D01*
X118952943Y-110298229D01*
X118911576Y-110302032D01*
X118867137Y-110303491D01*
X118847271Y-110303600D01*
X118799516Y-110302779D01*
X118765063Y-110299526D01*
X118737250Y-110292653D01*
X118709417Y-110280971D01*
X118703143Y-110277894D01*
X118657753Y-110247486D01*
X118625246Y-110209679D01*
X118607343Y-110167976D01*
X118605766Y-110125879D01*
X118615009Y-110098600D01*
X118624365Y-110074066D01*
X118700800Y-110074066D01*
X118705029Y-110119054D01*
X118719803Y-110154390D01*
X118748253Y-110185192D01*
X118784545Y-110211014D01*
X118843910Y-110241197D01*
X118905828Y-110257056D01*
X118973337Y-110258700D01*
X119049474Y-110246237D01*
X119127229Y-110223274D01*
X119177751Y-110206060D01*
X119231801Y-110187830D01*
X119279275Y-110171989D01*
X119287821Y-110169166D01*
X119330699Y-110151482D01*
X119384435Y-110123941D01*
X119444391Y-110089330D01*
X119505931Y-110050435D01*
X119564417Y-110010044D01*
X119608455Y-109976464D01*
X119633753Y-109955075D01*
X119652629Y-109935235D01*
X119665887Y-109913697D01*
X119674334Y-109887212D01*
X119678772Y-109852530D01*
X119680008Y-109806403D01*
X119678846Y-109745583D01*
X119677262Y-109698722D01*
X119674203Y-109633204D01*
X119669923Y-109567642D01*
X119664864Y-109507498D01*
X119659467Y-109458239D01*
X119655894Y-109434116D01*
X119650118Y-109395321D01*
X119647493Y-109364516D01*
X119648354Y-109346569D01*
X119649691Y-109344116D01*
X119651637Y-109332684D01*
X119650714Y-109305439D01*
X119647197Y-109266318D01*
X119641362Y-109219261D01*
X119640567Y-109213600D01*
X119632723Y-109157586D01*
X119625015Y-109101036D01*
X119618397Y-109051047D01*
X119614294Y-109018600D01*
X119607693Y-108978298D01*
X119597809Y-108954452D01*
X119581730Y-108946065D01*
X119556546Y-108952145D01*
X119519345Y-108971697D01*
X119503964Y-108980919D01*
X119430389Y-109031893D01*
X119350431Y-109098190D01*
X119266409Y-109177126D01*
X119180642Y-109266017D01*
X119095449Y-109362179D01*
X119013149Y-109462927D01*
X118936060Y-109565576D01*
X118866502Y-109667444D01*
X118806794Y-109765845D01*
X118775846Y-109823723D01*
X118740031Y-109901053D01*
X118716423Y-109967630D01*
X118703804Y-110027524D01*
X118700800Y-110074066D01*
X118624365Y-110074066D01*
X118626218Y-110069208D01*
X118630738Y-110042218D01*
X118635052Y-110007437D01*
X118646887Y-109959212D01*
X118664762Y-109901962D01*
X118687200Y-109840105D01*
X118712723Y-109778058D01*
X118735674Y-109728600D01*
X118820189Y-109575217D01*
X118920506Y-109423672D01*
X119032727Y-109279270D01*
X119152959Y-109147316D01*
X119187337Y-109113505D01*
X119238581Y-109066248D01*
X119295267Y-109017106D01*
X119353633Y-108969074D01*
X119409917Y-108925149D01*
X119460357Y-108888327D01*
X119501190Y-108861603D01*
X119510049Y-108856525D01*
X119539073Y-108836149D01*
X119563500Y-108811939D01*
X119564978Y-108810021D01*
X119570756Y-108801334D01*
X119575425Y-108790902D01*
X119579163Y-108776490D01*
X119582147Y-108755861D01*
X119584554Y-108726780D01*
X119586562Y-108687012D01*
X119588347Y-108634319D01*
X119590086Y-108566467D01*
X119591958Y-108481220D01*
X119592289Y-108465462D01*
X119594287Y-108371085D01*
X119596504Y-108268252D01*
X119598812Y-108162740D01*
X119601084Y-108060324D01*
X119603193Y-107966779D01*
X119604890Y-107893086D01*
X119610859Y-107637573D01*
X119559163Y-107558086D01*
X119506836Y-107472068D01*
X119468304Y-107394852D01*
X119442127Y-107322285D01*
X119426862Y-107250217D01*
X119421067Y-107174496D01*
X119420918Y-107160043D01*
X119421968Y-107107649D01*
X119426042Y-107061071D01*
X119434305Y-107017107D01*
X119447919Y-106972558D01*
X119468047Y-106924222D01*
X119495852Y-106868899D01*
X119532496Y-106803388D01*
X119579143Y-106724489D01*
X119579198Y-106724397D01*
X119659783Y-106590194D01*
X119629503Y-106551963D01*
X119608743Y-106520868D01*
X119592905Y-106488629D01*
X119589585Y-106478821D01*
X119586948Y-106445295D01*
X119672554Y-106445295D01*
X119674123Y-106467215D01*
X119689609Y-106511592D01*
X119721969Y-106550377D01*
X119768325Y-106581126D01*
X119825801Y-106601394D01*
X119834064Y-106603156D01*
X119867844Y-106609486D01*
X119891180Y-106611816D01*
X119913230Y-106610102D01*
X119943153Y-106604301D01*
X119951096Y-106602602D01*
X120002067Y-106585152D01*
X120040743Y-106558533D01*
X120064436Y-106525168D01*
X120070800Y-106494646D01*
X120067939Y-106469813D01*
X120056901Y-106447981D01*
X120034000Y-106422405D01*
X120028300Y-106416849D01*
X119993905Y-106385880D01*
X119964353Y-106365989D01*
X119931779Y-106352805D01*
X119896953Y-106343858D01*
X119866766Y-106338984D01*
X119839184Y-106340326D01*
X119805546Y-106348717D01*
X119788186Y-106354324D01*
X119750357Y-106369666D01*
X119716220Y-106388058D01*
X119697425Y-106401892D01*
X119678498Y-106423496D01*
X119672554Y-106445295D01*
X119586948Y-106445295D01*
X119585993Y-106433160D01*
X119596743Y-106385538D01*
X119619538Y-106344743D01*
X119626688Y-106336802D01*
X119668685Y-106306497D01*
X119723644Y-106283494D01*
X119785387Y-106269289D01*
X119847738Y-106265376D01*
X119897024Y-106271357D01*
X119938249Y-106280900D01*
X119979945Y-106223643D01*
X120012097Y-106184401D01*
X120049337Y-106149350D01*
X120094325Y-106116872D01*
X120149721Y-106085351D01*
X120218185Y-106053169D01*
X120302377Y-106018710D01*
X120341883Y-106003614D01*
X120427967Y-105971238D01*
X120408687Y-105909919D01*
X120395812Y-105843882D01*
X120401141Y-105783823D01*
X120425135Y-105728573D01*
X120468253Y-105676959D01*
X120515097Y-105638728D01*
X120587292Y-105594401D01*
X120658890Y-105566561D01*
X120736480Y-105553033D01*
X120780800Y-105550939D01*
X120862358Y-105555627D01*
X120928575Y-105572288D01*
X120980455Y-105601375D01*
X121019005Y-105643340D01*
X121030717Y-105663439D01*
X121048237Y-105712076D01*
X121057361Y-105768053D01*
X121057005Y-105822041D01*
X121052205Y-105848132D01*
X121046698Y-105880404D01*
X121053429Y-105900415D01*
X121074778Y-105910665D01*
X121113122Y-105913655D01*
X121114524Y-105913658D01*
X121166035Y-105916338D01*
X121233142Y-105924367D01*
X121316679Y-105937883D01*
X121417483Y-105957025D01*
X121536389Y-105981930D01*
X121561778Y-105987474D01*
X121642483Y-106004310D01*
X121721307Y-106019098D01*
X121795471Y-106031451D01*
X121862193Y-106040985D01*
X121918692Y-106047316D01*
X121962188Y-106050057D01*
X121989901Y-106048825D01*
X121995145Y-106047467D01*
X122006560Y-106036443D01*
X122023784Y-106012166D01*
X122043640Y-105979249D01*
X122049709Y-105968242D01*
X122115805Y-105855895D01*
X122282399Y-105855895D01*
X122292605Y-105875964D01*
X122317524Y-105894045D01*
X122355578Y-105911397D01*
X122390932Y-105927880D01*
X122434931Y-105951618D01*
X122479852Y-105978369D01*
X122494639Y-105987837D01*
X122533870Y-106013052D01*
X122570541Y-106035776D01*
X122598952Y-106052512D01*
X122607803Y-106057301D01*
X122654669Y-106071015D01*
X122712736Y-106071378D01*
X122778313Y-106058386D01*
X122781484Y-106057457D01*
X122820244Y-106048965D01*
X122868154Y-106042631D01*
X122911486Y-106039957D01*
X122952619Y-106040082D01*
X122980998Y-106043335D01*
X123003813Y-106051351D01*
X123028256Y-106065763D01*
X123029935Y-106066869D01*
X123049767Y-106081698D01*
X123066691Y-106099477D01*
X123083387Y-106124135D01*
X123102535Y-106159602D01*
X123125430Y-106206869D01*
X123155368Y-106267563D01*
X123181269Y-106312735D01*
X123205761Y-106345722D01*
X123231472Y-106369861D01*
X123261030Y-106388487D01*
X123273258Y-106394551D01*
X123320282Y-106407582D01*
X123382352Y-106410201D01*
X123457499Y-106402513D01*
X123543760Y-106384626D01*
X123566465Y-106378673D01*
X123616922Y-106363560D01*
X123676577Y-106343633D01*
X123736276Y-106322025D01*
X123767661Y-106309818D01*
X123815633Y-106289665D01*
X123869763Y-106265512D01*
X123927312Y-106238739D01*
X123985542Y-106210723D01*
X124041712Y-106182845D01*
X124093083Y-106156483D01*
X124136915Y-106133018D01*
X124170470Y-106113828D01*
X124191008Y-106100292D01*
X124192339Y-106098676D01*
X124495111Y-106098676D01*
X124498201Y-106106166D01*
X124506290Y-106111160D01*
X124526493Y-106118375D01*
X124562029Y-106127620D01*
X124608448Y-106137998D01*
X124661299Y-106148611D01*
X124716131Y-106158563D01*
X124768492Y-106166956D01*
X124810800Y-106172546D01*
X124850395Y-106175911D01*
X124903179Y-106178866D01*
X124962342Y-106181096D01*
X125021073Y-106182287D01*
X125022585Y-106182302D01*
X125079842Y-106182453D01*
X125120401Y-106181434D01*
X125147543Y-106178933D01*
X125164554Y-106174642D01*
X125174714Y-106168250D01*
X125175085Y-106167885D01*
X125186825Y-106146446D01*
X125190800Y-106123393D01*
X125188443Y-106096645D01*
X125181886Y-106054386D01*
X125171900Y-106000478D01*
X125159255Y-105938781D01*
X125144722Y-105873158D01*
X125129071Y-105807469D01*
X125122737Y-105782302D01*
X125095530Y-105676004D01*
X124955665Y-105764017D01*
X124892328Y-105804821D01*
X124823583Y-105850739D01*
X124753122Y-105899162D01*
X124684635Y-105947485D01*
X124621812Y-105993103D01*
X124568346Y-106033409D01*
X124527926Y-106065798D01*
X124526290Y-106067183D01*
X124503840Y-106087077D01*
X124495111Y-106098676D01*
X124192339Y-106098676D01*
X124196108Y-106094098D01*
X124183257Y-106085831D01*
X124160041Y-106078433D01*
X124159745Y-106078368D01*
X124141129Y-106072329D01*
X124107615Y-106059577D01*
X124062575Y-106041538D01*
X124009381Y-106019638D01*
X123951404Y-105995305D01*
X123892016Y-105969964D01*
X123834587Y-105945043D01*
X123782489Y-105921969D01*
X123739094Y-105902167D01*
X123708251Y-105887308D01*
X123650253Y-105860645D01*
X123580654Y-105832817D01*
X123507425Y-105806753D01*
X123438540Y-105785383D01*
X123410800Y-105778007D01*
X123380437Y-105771376D01*
X123347600Y-105766246D01*
X123310189Y-105762597D01*
X123266103Y-105760409D01*
X123213242Y-105759662D01*
X123149507Y-105760338D01*
X123072795Y-105762414D01*
X122981008Y-105765873D01*
X122872046Y-105770694D01*
X122832773Y-105772541D01*
X122740382Y-105776712D01*
X122665174Y-105779535D01*
X122604378Y-105781025D01*
X122555224Y-105781194D01*
X122514940Y-105780055D01*
X122480757Y-105777622D01*
X122452954Y-105774341D01*
X122412434Y-105767805D01*
X122379068Y-105760822D01*
X122358186Y-105754570D01*
X122354611Y-105752613D01*
X122341590Y-105753123D01*
X122323696Y-105766780D01*
X122305127Y-105788908D01*
X122290082Y-105814829D01*
X122284324Y-105830918D01*
X122282399Y-105855895D01*
X122115805Y-105855895D01*
X122151583Y-105795082D01*
X122195886Y-105730787D01*
X123550458Y-105730787D01*
X123561192Y-105741265D01*
X123587289Y-105755903D01*
X123629361Y-105775784D01*
X123688021Y-105801990D01*
X123763881Y-105835607D01*
X123786546Y-105845716D01*
X123893162Y-105893035D01*
X123983702Y-105932189D01*
X124060141Y-105963626D01*
X124124457Y-105987788D01*
X124178625Y-106005121D01*
X124224621Y-106016071D01*
X124264422Y-106021082D01*
X124300004Y-106020599D01*
X124333342Y-106015067D01*
X124366414Y-106004931D01*
X124401195Y-105990636D01*
X124410800Y-105986275D01*
X124437275Y-105972341D01*
X124477141Y-105949081D01*
X124527262Y-105918435D01*
X124584504Y-105882342D01*
X124645733Y-105842745D01*
X124690800Y-105812971D01*
X124905800Y-105669587D01*
X124860800Y-105660894D01*
X124836202Y-105655870D01*
X124796320Y-105647412D01*
X124745393Y-105636432D01*
X124687657Y-105623841D01*
X124640800Y-105613530D01*
X124563885Y-105596648D01*
X124503517Y-105583903D01*
X124456737Y-105575016D01*
X124420585Y-105569708D01*
X124392103Y-105567699D01*
X124368330Y-105568710D01*
X124346307Y-105572462D01*
X124323074Y-105578677D01*
X124310800Y-105582398D01*
X124151969Y-105625704D01*
X123979425Y-105662421D01*
X123798686Y-105691450D01*
X123705800Y-105702867D01*
X123648905Y-105708799D01*
X123604311Y-105713474D01*
X123572630Y-105717975D01*
X123554475Y-105723385D01*
X123550458Y-105730787D01*
X122195886Y-105730787D01*
X122212642Y-105706470D01*
X122390923Y-105706470D01*
X122394033Y-105711870D01*
X122398969Y-105709731D01*
X122412066Y-105706244D01*
X122439859Y-105701345D01*
X122477173Y-105695910D01*
X122491469Y-105694051D01*
X122531521Y-105690521D01*
X122583368Y-105688709D01*
X122648967Y-105688617D01*
X122730278Y-105690244D01*
X122829262Y-105693593D01*
X122845800Y-105694246D01*
X122919729Y-105696910D01*
X122989221Y-105698849D01*
X123051124Y-105700021D01*
X123102289Y-105700381D01*
X123139565Y-105699885D01*
X123159031Y-105698613D01*
X123202263Y-105692155D01*
X123129031Y-105641837D01*
X123020257Y-105562197D01*
X122901071Y-105465607D01*
X122838236Y-105411534D01*
X122805447Y-105383288D01*
X122778301Y-105360785D01*
X122760220Y-105346813D01*
X122754757Y-105343600D01*
X122742371Y-105350346D01*
X122718527Y-105368987D01*
X122685759Y-105397127D01*
X122646599Y-105432370D01*
X122603582Y-105472318D01*
X122559240Y-105514575D01*
X122516107Y-105556744D01*
X122476716Y-105596430D01*
X122443600Y-105631236D01*
X122419293Y-105658765D01*
X122412419Y-105667448D01*
X122397466Y-105690360D01*
X122390923Y-105706470D01*
X122212642Y-105706470D01*
X122266057Y-105628952D01*
X122391489Y-105471359D01*
X122526238Y-105323805D01*
X122568952Y-105283016D01*
X122810800Y-105283016D01*
X122818305Y-105293895D01*
X122838967Y-105314567D01*
X122870007Y-105342741D01*
X122908643Y-105376127D01*
X122952096Y-105412434D01*
X122997586Y-105449373D01*
X123042332Y-105484652D01*
X123083554Y-105515982D01*
X123118472Y-105541072D01*
X123143759Y-105557320D01*
X123216579Y-105590396D01*
X123301751Y-105614525D01*
X123346157Y-105622472D01*
X123387016Y-105628162D01*
X123417741Y-105631187D01*
X123445532Y-105631599D01*
X123477590Y-105629448D01*
X123521117Y-105624786D01*
X123529832Y-105623787D01*
X123564633Y-105618510D01*
X123614624Y-105609192D01*
X123675608Y-105596706D01*
X123743389Y-105581920D01*
X123813770Y-105565707D01*
X123839832Y-105559472D01*
X123909714Y-105542665D01*
X123978119Y-105526386D01*
X124040951Y-105511598D01*
X124079433Y-105502668D01*
X124586040Y-105502668D01*
X124586142Y-105505453D01*
X124587635Y-105506644D01*
X124600755Y-105511424D01*
X124628266Y-105519544D01*
X124665143Y-105529550D01*
X124681085Y-105533677D01*
X124749679Y-105548740D01*
X124820885Y-105560126D01*
X124888524Y-105567106D01*
X124946416Y-105568952D01*
X124969695Y-105567729D01*
X125004260Y-105565086D01*
X125035327Y-105563673D01*
X125041308Y-105563600D01*
X125069026Y-105563600D01*
X125054665Y-105501100D01*
X125042913Y-105454686D01*
X125028486Y-105404005D01*
X125020035Y-105376996D01*
X124999766Y-105315393D01*
X124832783Y-105388443D01*
X124757711Y-105421328D01*
X124699082Y-105447163D01*
X124654995Y-105466864D01*
X124623549Y-105481348D01*
X124602842Y-105491532D01*
X124590973Y-105498334D01*
X124586040Y-105502668D01*
X124079433Y-105502668D01*
X124094115Y-105499261D01*
X124133516Y-105490338D01*
X124144114Y-105488023D01*
X124179232Y-105479411D01*
X124204020Y-105471218D01*
X124214456Y-105464855D01*
X124214114Y-105463443D01*
X124202301Y-105455591D01*
X124177038Y-105440598D01*
X124142452Y-105420870D01*
X124115175Y-105405683D01*
X124015046Y-105351660D01*
X123928846Y-105308022D01*
X123854013Y-105273839D01*
X123787986Y-105248177D01*
X123728204Y-105230104D01*
X123672105Y-105218689D01*
X123617130Y-105212999D01*
X123582786Y-105211940D01*
X123529214Y-105212462D01*
X123472432Y-105214404D01*
X123422558Y-105217387D01*
X123410713Y-105218404D01*
X123333341Y-105219448D01*
X123247562Y-105210113D01*
X123191088Y-105198065D01*
X123890800Y-105198065D01*
X123899326Y-105206411D01*
X123922832Y-105221669D01*
X123958205Y-105242223D01*
X124002333Y-105266456D01*
X124052104Y-105292752D01*
X124104407Y-105319496D01*
X124156129Y-105345071D01*
X124204160Y-105367861D01*
X124245386Y-105386250D01*
X124276696Y-105398621D01*
X124277529Y-105398910D01*
X124359845Y-105421958D01*
X124434589Y-105430832D01*
X124507670Y-105426131D01*
X124521935Y-105423738D01*
X124543330Y-105417343D01*
X124577497Y-105404243D01*
X124621350Y-105385882D01*
X124671806Y-105363708D01*
X124725778Y-105339165D01*
X124780183Y-105313700D01*
X124831934Y-105288759D01*
X124877948Y-105265788D01*
X124915139Y-105246232D01*
X124940423Y-105231537D01*
X124950714Y-105223150D01*
X124950800Y-105222726D01*
X124943604Y-105212954D01*
X124925625Y-105196741D01*
X124918300Y-105190920D01*
X124896496Y-105173183D01*
X124865075Y-105146471D01*
X124829240Y-105115238D01*
X124810800Y-105098878D01*
X124735800Y-105031890D01*
X124650800Y-105037003D01*
X124580692Y-105045564D01*
X124494285Y-105063686D01*
X124420800Y-105083039D01*
X124308374Y-105113385D01*
X124212326Y-105136225D01*
X124130659Y-105151947D01*
X124061373Y-105160938D01*
X124006071Y-105163600D01*
X123950623Y-105166053D01*
X123913684Y-105173593D01*
X123894352Y-105186488D01*
X123890800Y-105198065D01*
X123191088Y-105198065D01*
X123161211Y-105191691D01*
X123082122Y-105165475D01*
X123076950Y-105163335D01*
X123041564Y-105149068D01*
X123012724Y-105138540D01*
X122995863Y-105133712D01*
X122994584Y-105133600D01*
X122982995Y-105139578D01*
X122960469Y-105155431D01*
X122930847Y-105178035D01*
X122897973Y-105204266D01*
X122865690Y-105231001D01*
X122837838Y-105255115D01*
X122818260Y-105273484D01*
X122810800Y-105282986D01*
X122810800Y-105283016D01*
X122568952Y-105283016D01*
X122668664Y-105187797D01*
X122817126Y-105064838D01*
X122846885Y-105043733D01*
X123077327Y-105043733D01*
X123077826Y-105044626D01*
X123096342Y-105053964D01*
X123131166Y-105063460D01*
X123178615Y-105072734D01*
X123235006Y-105081406D01*
X123296655Y-105089097D01*
X123359878Y-105095427D01*
X123420991Y-105100016D01*
X123476310Y-105102484D01*
X123522152Y-105102452D01*
X123554833Y-105099541D01*
X123568546Y-105095204D01*
X123568324Y-105085050D01*
X123555139Y-105065746D01*
X123531969Y-105040224D01*
X123501790Y-105011415D01*
X123467579Y-104982250D01*
X123432311Y-104955661D01*
X123415368Y-104944347D01*
X123386007Y-104927410D01*
X123359209Y-104917181D01*
X123331876Y-104914277D01*
X123300910Y-104919309D01*
X123263211Y-104932892D01*
X123215682Y-104955639D01*
X123155224Y-104988164D01*
X123133722Y-105000133D01*
X123103904Y-105018438D01*
X123083879Y-105033948D01*
X123077327Y-105043733D01*
X122846885Y-105043733D01*
X122969982Y-104956434D01*
X123103287Y-104877326D01*
X123450800Y-104877326D01*
X123458156Y-104890609D01*
X123477649Y-104912385D01*
X123505416Y-104939152D01*
X123537592Y-104967404D01*
X123570315Y-104993637D01*
X123599721Y-105014345D01*
X123606233Y-105018325D01*
X123666092Y-105048716D01*
X123730805Y-105071393D01*
X123805800Y-105088625D01*
X123859699Y-105097376D01*
X123907922Y-105101435D01*
X123956691Y-105100702D01*
X124012230Y-105095076D01*
X124080761Y-105084458D01*
X124082306Y-105084194D01*
X124119984Y-105076802D01*
X124168752Y-105065844D01*
X124225001Y-105052279D01*
X124285122Y-105037065D01*
X124345506Y-105021162D01*
X124402544Y-105005529D01*
X124452627Y-104991126D01*
X124492147Y-104978910D01*
X124517494Y-104969842D01*
X124523475Y-104966946D01*
X124519917Y-104960340D01*
X124500226Y-104947916D01*
X124467032Y-104930785D01*
X124422963Y-104910054D01*
X124370650Y-104886832D01*
X124312722Y-104862228D01*
X124251808Y-104837350D01*
X124190538Y-104813307D01*
X124131541Y-104791207D01*
X124077448Y-104772161D01*
X124030887Y-104757275D01*
X124016225Y-104753079D01*
X123967138Y-104742026D01*
X123918968Y-104736995D01*
X123867535Y-104738256D01*
X123808659Y-104746079D01*
X123738163Y-104760733D01*
X123681802Y-104774647D01*
X123625981Y-104790733D01*
X123572647Y-104809167D01*
X123525133Y-104828466D01*
X123486771Y-104847151D01*
X123460892Y-104863739D01*
X123450828Y-104876751D01*
X123450800Y-104877326D01*
X123103287Y-104877326D01*
X123125591Y-104864090D01*
X123282313Y-104789309D01*
X123373422Y-104754456D01*
X123430284Y-104737175D01*
X123499872Y-104719790D01*
X123577084Y-104703230D01*
X123656821Y-104688424D01*
X123733982Y-104676302D01*
X123803466Y-104667793D01*
X123860172Y-104663826D01*
X123871891Y-104663653D01*
X123925562Y-104666100D01*
G37*
G36*
X120826103Y-107645742D02*
G01*
X120839431Y-107652812D01*
X120840800Y-107658032D01*
X120832269Y-107675992D01*
X120811122Y-107691159D01*
X120784027Y-107701257D01*
X120757649Y-107704014D01*
X120738657Y-107697155D01*
X120735927Y-107693806D01*
X120735359Y-107678172D01*
X120740689Y-107663806D01*
X120753219Y-107650297D01*
X120775555Y-107644406D01*
X120796151Y-107643600D01*
X120826103Y-107645742D01*
G37*
G36*
X121813487Y-106684593D02*
G01*
X121886411Y-106718061D01*
X121918600Y-106740058D01*
X121960058Y-106781698D01*
X121984186Y-106828191D01*
X121990864Y-106876495D01*
X121979973Y-106923568D01*
X121951392Y-106966368D01*
X121928310Y-106986820D01*
X121895785Y-107006516D01*
X121854206Y-107025578D01*
X121810675Y-107041329D01*
X121772297Y-107051089D01*
X121752924Y-107052941D01*
X121727856Y-107049962D01*
X121693183Y-107043048D01*
X121671042Y-107037569D01*
X121599185Y-107011223D01*
X121542820Y-106975463D01*
X121502942Y-106931298D01*
X121480544Y-106879739D01*
X121476072Y-106841648D01*
X121536330Y-106841648D01*
X121544417Y-106877460D01*
X121566191Y-106912621D01*
X121600897Y-106945047D01*
X121647784Y-106972654D01*
X121706098Y-106993357D01*
X121753090Y-107002595D01*
X121765613Y-107000185D01*
X121791518Y-106992900D01*
X121825250Y-106982304D01*
X121825997Y-106982059D01*
X121882009Y-106958145D01*
X121918771Y-106929396D01*
X121936496Y-106895588D01*
X121937153Y-106865001D01*
X121920911Y-106823887D01*
X121888614Y-106788015D01*
X121843892Y-106759079D01*
X121790373Y-106738775D01*
X121731686Y-106728800D01*
X121671460Y-106730848D01*
X121655900Y-106733579D01*
X121601713Y-106751151D01*
X121564225Y-106776410D01*
X121542681Y-106807270D01*
X121536330Y-106841648D01*
X121476072Y-106841648D01*
X121475800Y-106839330D01*
X121481334Y-106792940D01*
X121499570Y-106756069D01*
X121532955Y-106725495D01*
X121582835Y-106698491D01*
X121659404Y-106674523D01*
X121737053Y-106669985D01*
X121813487Y-106684593D01*
G37*
G36*
X119682652Y-107349758D02*
G01*
X119712955Y-107381413D01*
X119733300Y-107407085D01*
X119762436Y-107448691D01*
X119778132Y-107477438D01*
X119780746Y-107492652D01*
X119770638Y-107493655D01*
X119748167Y-107479773D01*
X119713692Y-107450329D01*
X119711426Y-107448218D01*
X119682125Y-107417339D01*
X119659066Y-107386519D01*
X119644729Y-107359812D01*
X119641592Y-107341276D01*
X119643700Y-107337366D01*
X119659289Y-107334860D01*
X119682652Y-107349758D01*
G37*
G36*
X121475610Y-107926476D02*
G01*
X121483607Y-107934912D01*
X121472680Y-107948615D01*
X121442928Y-107967295D01*
X121431467Y-107973263D01*
X121384927Y-107994076D01*
X121352369Y-108002612D01*
X121334390Y-107998776D01*
X121330800Y-107989021D01*
X121339399Y-107974397D01*
X121361286Y-107957283D01*
X121390590Y-107940939D01*
X121421443Y-107928626D01*
X121447975Y-107923604D01*
X121448588Y-107923600D01*
X121475610Y-107926476D01*
G37*
G36*
X119904093Y-107314433D02*
G01*
X119911550Y-107323591D01*
X119928462Y-107344258D01*
X119951598Y-107372482D01*
X119959093Y-107381619D01*
X119991735Y-107425462D01*
X120008346Y-107458039D01*
X120009106Y-107479794D01*
X120001888Y-107487927D01*
X119990774Y-107484296D01*
X119971940Y-107469024D01*
X119958302Y-107455053D01*
X119938030Y-107428387D01*
X119918986Y-107396303D01*
X119903549Y-107363942D01*
X119894095Y-107336447D01*
X119893000Y-107318960D01*
X119894356Y-107316710D01*
X119903416Y-107313802D01*
X119904093Y-107314433D01*
G37*
G36*
X121217573Y-107620318D02*
G01*
X121210055Y-107633388D01*
X121184059Y-107651163D01*
X121160522Y-107662874D01*
X121122869Y-107677929D01*
X121096832Y-107682642D01*
X121077382Y-107677754D01*
X121073827Y-107675682D01*
X121066227Y-107663566D01*
X121077679Y-107649765D01*
X121107371Y-107634929D01*
X121138069Y-107624426D01*
X121180699Y-107614329D01*
X121207494Y-107613462D01*
X121217573Y-107620318D01*
G37*
G36*
X121766510Y-106791452D02*
G01*
X121789514Y-106810847D01*
X121800597Y-106835544D01*
X121800800Y-106839167D01*
X121792671Y-106866769D01*
X121772645Y-106890384D01*
X121747260Y-106902991D01*
X121740800Y-106903600D01*
X121719030Y-106896812D01*
X121700800Y-106883600D01*
X121685817Y-106861830D01*
X121680800Y-106843600D01*
X121688853Y-106819568D01*
X121708184Y-106797365D01*
X121731551Y-106784510D01*
X121738574Y-106783600D01*
X121766510Y-106791452D01*
G37*
G36*
X119896348Y-106412279D02*
G01*
X119918406Y-106433563D01*
X119930232Y-106460326D01*
X119930800Y-106467050D01*
X119922595Y-106496162D01*
X119901771Y-106515135D01*
X119874010Y-106521890D01*
X119844995Y-106514352D01*
X119830800Y-106503600D01*
X119815817Y-106481830D01*
X119810800Y-106463600D01*
X119817587Y-106441830D01*
X119830800Y-106423600D01*
X119852569Y-106408617D01*
X119870800Y-106403600D01*
X119896348Y-106412279D01*
G37*
G36*
X120801484Y-105755585D02*
G01*
X120841387Y-105759938D01*
X120869195Y-105768342D01*
X120886904Y-105783930D01*
X120896512Y-105809835D01*
X120900016Y-105849190D01*
X120899415Y-105905128D01*
X120899295Y-105909005D01*
X120896147Y-105970636D01*
X120890277Y-106015000D01*
X120880271Y-106044788D01*
X120864712Y-106062689D01*
X120842184Y-106071395D01*
X120812688Y-106073600D01*
X120758806Y-106065737D01*
X120720552Y-106051100D01*
X120672323Y-106016256D01*
X120636322Y-105968800D01*
X120615899Y-105913574D01*
X120613282Y-105895922D01*
X120611861Y-105863933D01*
X120617405Y-105841640D01*
X120633056Y-105819110D01*
X120640183Y-105810830D01*
X120678627Y-105777780D01*
X120724706Y-105759474D01*
X120782123Y-105754642D01*
X120801484Y-105755585D01*
G37*
G36*
X121148707Y-107835774D02*
G01*
X121156244Y-107841861D01*
X121155391Y-107844260D01*
X121135830Y-107865892D01*
X121107450Y-107885962D01*
X121075726Y-107901918D01*
X121046132Y-107911211D01*
X121024143Y-107911289D01*
X121018554Y-107908020D01*
X121015215Y-107892458D01*
X121024666Y-107872027D01*
X121043283Y-107853289D01*
X121051574Y-107848199D01*
X121074605Y-107840006D01*
X121102237Y-107835061D01*
X121128821Y-107833579D01*
X121148707Y-107835774D01*
G37*
G36*
X119722309Y-107061267D02*
G01*
X119741962Y-107081148D01*
X119763716Y-107108558D01*
X119775626Y-107126100D01*
X119786728Y-107144926D01*
X119785657Y-107152302D01*
X119771058Y-107153598D01*
X119768693Y-107153600D01*
X119744495Y-107146510D01*
X119722543Y-107130455D01*
X119709901Y-107110597D01*
X119702173Y-107086802D01*
X119700534Y-107065775D01*
X119706162Y-107054224D01*
X119709056Y-107053600D01*
X119722309Y-107061267D01*
G37*
G36*
X108523200Y-134311600D02*
G01*
X108223200Y-134311600D01*
X108223200Y-134611600D01*
X108463200Y-134611600D01*
X108463200Y-134771600D01*
X108213200Y-134771600D01*
X108213200Y-135111600D01*
X108513200Y-135111600D01*
X108513200Y-135271600D01*
X108033200Y-135271600D01*
X108033200Y-134151600D01*
X108523200Y-134151600D01*
X108523200Y-134311600D01*
G37*
G36*
X105159859Y-134356404D02*
G01*
X105054699Y-134561983D01*
X105158949Y-134913653D01*
X105182681Y-134993800D01*
X105204516Y-135067721D01*
X105223826Y-135133271D01*
X105239979Y-135188301D01*
X105252345Y-135230665D01*
X105260295Y-135258215D01*
X105263197Y-135268804D01*
X105263200Y-135268837D01*
X105253943Y-135270079D01*
X105229114Y-135270496D01*
X105193126Y-135270056D01*
X105171351Y-135269475D01*
X105079503Y-135266600D01*
X105006977Y-135026600D01*
X104987117Y-134960775D01*
X104969282Y-134901472D01*
X104954258Y-134851315D01*
X104942830Y-134812931D01*
X104935783Y-134788946D01*
X104933826Y-134781882D01*
X104929596Y-134787938D01*
X104918887Y-134808186D01*
X104903734Y-134838723D01*
X104898200Y-134850196D01*
X104863200Y-134923229D01*
X104863200Y-135281600D01*
X104683200Y-135281600D01*
X104683200Y-134151600D01*
X104863200Y-134151600D01*
X104863290Y-134616600D01*
X104971388Y-134386600D01*
X105079487Y-134156600D01*
X105172253Y-134153712D01*
X105265020Y-134150825D01*
X105159859Y-134356404D01*
G37*
G36*
X102225700Y-134151655D02*
G01*
X102284078Y-134152336D01*
X102338460Y-134154176D01*
X102384344Y-134156936D01*
X102417227Y-134160375D01*
X102428200Y-134162484D01*
X102487713Y-134187381D01*
X102534867Y-134227343D01*
X102569241Y-134279449D01*
X102598200Y-134336600D01*
X102601168Y-134699927D01*
X102601910Y-134805303D01*
X102602062Y-134892751D01*
X102601337Y-134964344D01*
X102599447Y-135022152D01*
X102596104Y-135068246D01*
X102591022Y-135104697D01*
X102583912Y-135133576D01*
X102574486Y-135156954D01*
X102562457Y-135176902D01*
X102547536Y-135195491D01*
X102529670Y-135214552D01*
X102506159Y-135236282D01*
X102481276Y-135252847D01*
X102451960Y-135264915D01*
X102415147Y-135273155D01*
X102367775Y-135278236D01*
X102306782Y-135280827D01*
X102229105Y-135281597D01*
X102222707Y-135281600D01*
X102063200Y-135281600D01*
X102063200Y-134309270D01*
X102243200Y-134309270D01*
X102243200Y-135113929D01*
X102309547Y-135109705D01*
X102347330Y-135106213D01*
X102371574Y-135100152D01*
X102388741Y-135089224D01*
X102399917Y-135077551D01*
X102423940Y-135049623D01*
X102421070Y-134705877D01*
X102420275Y-134613941D01*
X102419489Y-134539905D01*
X102418569Y-134481671D01*
X102417370Y-134437140D01*
X102415748Y-134404213D01*
X102413559Y-134380792D01*
X102410658Y-134364777D01*
X102406901Y-134354071D01*
X102402144Y-134346574D01*
X102396243Y-134340187D01*
X102395909Y-134339853D01*
X102377121Y-134326210D01*
X102350746Y-134318057D01*
X102310762Y-134313575D01*
X102308409Y-134313422D01*
X102243200Y-134309270D01*
X102063200Y-134309270D01*
X102063200Y-134151600D01*
X102225700Y-134151655D01*
G37*
G36*
X107920854Y-134152248D02*
G01*
X107948637Y-134153972D01*
X107962472Y-134156435D01*
X107963200Y-134157191D01*
X107961743Y-134168468D01*
X107957596Y-134197310D01*
X107951091Y-134241515D01*
X107942564Y-134298879D01*
X107932348Y-134367197D01*
X107920776Y-134444266D01*
X107908182Y-134527882D01*
X107894901Y-134615841D01*
X107881266Y-134705939D01*
X107867611Y-134795973D01*
X107854269Y-134883738D01*
X107841575Y-134967031D01*
X107829863Y-135043648D01*
X107819465Y-135111385D01*
X107810717Y-135168039D01*
X107803952Y-135211405D01*
X107799503Y-135239279D01*
X107797803Y-135249100D01*
X107794726Y-135258772D01*
X107788229Y-135265183D01*
X107774751Y-135269000D01*
X107750732Y-135270895D01*
X107712611Y-135271537D01*
X107678200Y-135271600D01*
X107628880Y-135271415D01*
X107595993Y-135270415D01*
X107575973Y-135267929D01*
X107565254Y-135263289D01*
X107560270Y-135255823D01*
X107558407Y-135249100D01*
X107556065Y-135236011D01*
X107550976Y-135205609D01*
X107543491Y-135160090D01*
X107533963Y-135101649D01*
X107522744Y-135032483D01*
X107510186Y-134954788D01*
X107496642Y-134870759D01*
X107482463Y-134782592D01*
X107468001Y-134692483D01*
X107453608Y-134602627D01*
X107439637Y-134515221D01*
X107426440Y-134432461D01*
X107414369Y-134356542D01*
X107403776Y-134289660D01*
X107395013Y-134234011D01*
X107388431Y-134191792D01*
X107384385Y-134165196D01*
X107383200Y-134156468D01*
X107392452Y-134154317D01*
X107417225Y-134152652D01*
X107453037Y-134151717D01*
X107472526Y-134151600D01*
X107515942Y-134152115D01*
X107543285Y-134154147D01*
X107558465Y-134158423D01*
X107565392Y-134165670D01*
X107566606Y-134169100D01*
X107568960Y-134182607D01*
X107573655Y-134213702D01*
X107580374Y-134260148D01*
X107588802Y-134319709D01*
X107598625Y-134390150D01*
X107609525Y-134469235D01*
X107621187Y-134554727D01*
X107624491Y-134579100D01*
X107636272Y-134665129D01*
X107647423Y-134744643D01*
X107657628Y-134815532D01*
X107666573Y-134875687D01*
X107673940Y-134922998D01*
X107679415Y-134955356D01*
X107682683Y-134970652D01*
X107683200Y-134971600D01*
X107685717Y-134962037D01*
X107690539Y-134934757D01*
X107697353Y-134891868D01*
X107705840Y-134835480D01*
X107715687Y-134767701D01*
X107726578Y-134690643D01*
X107738197Y-134606413D01*
X107741908Y-134579100D01*
X107753725Y-134492235D01*
X107764867Y-134411162D01*
X107775017Y-134338118D01*
X107783861Y-134275337D01*
X107791083Y-134225056D01*
X107796366Y-134189511D01*
X107799396Y-134170936D01*
X107799793Y-134169100D01*
X107805130Y-134160176D01*
X107817915Y-134154858D01*
X107842281Y-134152287D01*
X107882363Y-134151600D01*
X107883873Y-134151600D01*
X107920854Y-134152248D01*
G37*
G36*
X103883200Y-134609784D02*
G01*
X103883149Y-134726174D01*
X103882848Y-134824381D01*
X103882077Y-134906226D01*
X103880614Y-134973526D01*
X103878236Y-135028101D01*
X103874723Y-135071768D01*
X103869854Y-135106346D01*
X103863406Y-135133653D01*
X103855158Y-135155509D01*
X103844889Y-135173731D01*
X103832377Y-135190139D01*
X103817401Y-135206550D01*
X103809523Y-135214704D01*
X103776993Y-135244086D01*
X103745619Y-135261449D01*
X103714196Y-135270452D01*
X103658546Y-135278513D01*
X103599617Y-135280666D01*
X103544841Y-135277017D01*
X103501652Y-135267674D01*
X103500790Y-135267370D01*
X103456350Y-135247957D01*
X103424696Y-135223637D01*
X103399307Y-135188531D01*
X103386616Y-135164469D01*
X103358200Y-135106600D01*
X103355328Y-134634100D01*
X103352457Y-134161600D01*
X103532618Y-134161600D01*
X103535409Y-134621329D01*
X103538200Y-135081059D01*
X103560750Y-135103602D01*
X103593015Y-135123008D01*
X103630817Y-135127077D01*
X103667211Y-135116094D01*
X103689261Y-135098315D01*
X103713200Y-135070484D01*
X103713200Y-134151600D01*
X103883200Y-134151600D01*
X103883200Y-134609784D01*
G37*
G36*
X104226796Y-134156600D02*
G01*
X104388200Y-134796600D01*
X104390838Y-134474100D01*
X104393477Y-134151600D01*
X104553200Y-134151600D01*
X104553200Y-135272350D01*
X104369766Y-135266600D01*
X104168200Y-134476600D01*
X104162970Y-135271600D01*
X104003200Y-135271600D01*
X104003200Y-134150944D01*
X104226796Y-134156600D01*
G37*
G36*
X108806017Y-134153305D02*
G01*
X108871404Y-134154629D01*
X108920288Y-134156192D01*
X108956165Y-134158426D01*
X108982533Y-134161765D01*
X109002888Y-134166639D01*
X109020725Y-134173481D01*
X109038125Y-134181991D01*
X109074619Y-134205238D01*
X109100143Y-134234580D01*
X109112808Y-134256724D01*
X109123351Y-134278754D01*
X109130501Y-134299496D01*
X109134909Y-134323552D01*
X109137224Y-134355521D01*
X109138097Y-134400003D01*
X109138200Y-134436333D01*
X109136655Y-134506195D01*
X109131309Y-134559641D01*
X109121094Y-134600067D01*
X109104942Y-134630868D01*
X109081786Y-134655440D01*
X109065455Y-134667681D01*
X109034451Y-134688763D01*
X109063744Y-134710421D01*
X109086851Y-134733161D01*
X109109271Y-134763886D01*
X109115263Y-134774339D01*
X109122709Y-134789876D01*
X109128421Y-134806484D01*
X109132724Y-134827188D01*
X109135943Y-134855015D01*
X109138401Y-134892991D01*
X109140424Y-134944141D01*
X109142336Y-135011492D01*
X109142844Y-135031600D01*
X109144800Y-135095720D01*
X109147242Y-135153430D01*
X109149982Y-135201606D01*
X109152832Y-135237128D01*
X109155606Y-135256873D01*
X109156528Y-135259486D01*
X109156671Y-135265536D01*
X109145629Y-135269036D01*
X109120614Y-135270316D01*
X109078834Y-135269703D01*
X109071528Y-135269486D01*
X108978200Y-135266600D01*
X108973200Y-135061600D01*
X108970680Y-134980124D01*
X108967513Y-134917490D01*
X108963606Y-134872546D01*
X108958870Y-134844140D01*
X108955091Y-134833621D01*
X108930862Y-134808846D01*
X108891963Y-134795077D01*
X108847549Y-134791600D01*
X108803200Y-134791600D01*
X108803200Y-135271600D01*
X108623200Y-135271600D01*
X108623200Y-134620332D01*
X108803200Y-134620332D01*
X108835700Y-134624539D01*
X108881681Y-134625501D01*
X108918623Y-134616508D01*
X108932193Y-134608296D01*
X108950274Y-134582652D01*
X108963645Y-134542985D01*
X108971713Y-134494841D01*
X108973884Y-134443770D01*
X108969566Y-134395318D01*
X108959046Y-134357083D01*
X108941644Y-134327526D01*
X108916834Y-134310147D01*
X108880013Y-134302519D01*
X108853857Y-134301600D01*
X108803200Y-134301600D01*
X108803200Y-134620332D01*
X108623200Y-134620332D01*
X108623200Y-134150011D01*
X108806017Y-134153305D01*
G37*
G36*
X105786017Y-134153335D02*
G01*
X105853248Y-134154598D01*
X105903836Y-134156057D01*
X105941137Y-134158108D01*
X105968508Y-134161150D01*
X105989304Y-134165578D01*
X106006882Y-134171791D01*
X106024598Y-134180185D01*
X106028125Y-134181991D01*
X106064619Y-134205238D01*
X106090142Y-134234580D01*
X106102808Y-134256724D01*
X106114006Y-134280398D01*
X106121349Y-134302809D01*
X106125631Y-134329114D01*
X106127648Y-134364467D01*
X106128195Y-134414025D01*
X106128200Y-134421333D01*
X106127717Y-134473622D01*
X106125803Y-134510825D01*
X106121760Y-134537842D01*
X106114891Y-134559572D01*
X106105821Y-134578462D01*
X106085583Y-134608156D01*
X106061745Y-134632290D01*
X106053945Y-134637750D01*
X106024446Y-134655175D01*
X106068779Y-134694199D01*
X106097117Y-134723361D01*
X106117752Y-134755918D01*
X106131579Y-134795264D01*
X106139492Y-134844796D01*
X106142386Y-134907909D01*
X106141680Y-134970834D01*
X106139979Y-135024109D01*
X106137706Y-135061983D01*
X106133981Y-135089052D01*
X106127925Y-135109911D01*
X106118658Y-135129157D01*
X106107935Y-135147138D01*
X106069439Y-135194250D01*
X106028757Y-135226335D01*
X105979844Y-135256600D01*
X105786522Y-135259864D01*
X105593200Y-135263129D01*
X105593200Y-134761600D01*
X105773200Y-134761600D01*
X105773200Y-135100601D01*
X105830700Y-135104210D01*
X105863045Y-135106475D01*
X105886787Y-135108575D01*
X105895049Y-135109709D01*
X105908644Y-135107930D01*
X105926321Y-135102314D01*
X105947962Y-135085427D01*
X105961972Y-135060821D01*
X105968359Y-135029387D01*
X105971712Y-134985236D01*
X105972086Y-134935415D01*
X105969538Y-134886966D01*
X105964125Y-134846934D01*
X105960135Y-134831600D01*
X105938298Y-134797222D01*
X105900882Y-134773960D01*
X105849449Y-134762626D01*
X105825700Y-134761615D01*
X105773200Y-134761600D01*
X105593200Y-134761600D01*
X105593200Y-134611600D01*
X105793200Y-134611600D01*
X105835700Y-134611452D01*
X105869147Y-134608375D01*
X105898316Y-134600944D01*
X105903200Y-134598813D01*
X105929551Y-134575589D01*
X105948505Y-134539140D01*
X105959858Y-134494356D01*
X105963405Y-134446127D01*
X105958944Y-134399342D01*
X105946272Y-134358892D01*
X105925183Y-134329667D01*
X105914703Y-134322404D01*
X105892973Y-134316030D01*
X105860811Y-134312150D01*
X105843857Y-134311600D01*
X105793200Y-134311600D01*
X105793200Y-134611600D01*
X105593200Y-134611600D01*
X105593200Y-134150070D01*
X105786017Y-134153335D01*
G37*
G36*
X107133758Y-134151767D02*
G01*
X107167800Y-134152689D01*
X107188806Y-134154993D01*
X107200260Y-134159308D01*
X107205644Y-134166261D01*
X107207910Y-134174100D01*
X107210280Y-134187361D01*
X107215396Y-134217913D01*
X107222906Y-134263560D01*
X107232457Y-134322104D01*
X107243697Y-134391352D01*
X107256274Y-134469106D01*
X107269835Y-134553170D01*
X107284028Y-134641350D01*
X107298500Y-134731448D01*
X107312899Y-134821269D01*
X107326873Y-134908617D01*
X107340069Y-134991296D01*
X107352134Y-135067110D01*
X107362716Y-135133863D01*
X107371464Y-135189360D01*
X107378023Y-135231404D01*
X107382043Y-135257799D01*
X107383200Y-135266316D01*
X107373967Y-135268706D01*
X107349332Y-135270533D01*
X107313893Y-135271510D01*
X107298390Y-135271600D01*
X107262810Y-135271932D01*
X107238111Y-135270894D01*
X107221857Y-135265432D01*
X107211610Y-135252491D01*
X107204933Y-135229019D01*
X107199389Y-135191960D01*
X107192651Y-135139100D01*
X107181134Y-135051600D01*
X106985265Y-135051600D01*
X106973748Y-135139100D01*
X106966906Y-135192560D01*
X106961360Y-135229411D01*
X106954783Y-135252711D01*
X106944848Y-135265521D01*
X106929229Y-135270899D01*
X106905601Y-135271906D01*
X106873009Y-135271600D01*
X106835905Y-135270954D01*
X106807982Y-135269240D01*
X106793980Y-135266789D01*
X106793200Y-135266008D01*
X106794656Y-135254731D01*
X106798803Y-135225889D01*
X106805308Y-135181684D01*
X106813835Y-135124320D01*
X106824051Y-135056002D01*
X106835623Y-134978933D01*
X106848217Y-134895317D01*
X106848602Y-134892764D01*
X107006323Y-134892764D01*
X107013427Y-134898001D01*
X107031735Y-134900649D01*
X107064907Y-134901544D01*
X107083200Y-134901600D01*
X107123357Y-134901171D01*
X107147184Y-134899327D01*
X107158340Y-134895228D01*
X107160485Y-134888038D01*
X107159637Y-134884100D01*
X107156903Y-134869522D01*
X107151905Y-134838149D01*
X107145093Y-134793000D01*
X107136919Y-134737096D01*
X107127833Y-134673455D01*
X107122311Y-134634100D01*
X107112904Y-134568584D01*
X107104002Y-134510215D01*
X107096064Y-134461732D01*
X107089554Y-134425875D01*
X107084930Y-134405385D01*
X107083200Y-134401600D01*
X107079995Y-134411055D01*
X107074613Y-134437597D01*
X107067517Y-134478482D01*
X107059166Y-134530973D01*
X107050021Y-134592327D01*
X107044088Y-134634100D01*
X107034679Y-134700850D01*
X107025920Y-134761619D01*
X107018262Y-134813387D01*
X107012154Y-134853135D01*
X107008049Y-134877843D01*
X107006762Y-134884100D01*
X107006323Y-134892764D01*
X106848602Y-134892764D01*
X106861498Y-134807358D01*
X106875133Y-134717260D01*
X106888788Y-134627226D01*
X106902130Y-134539461D01*
X106914824Y-134456168D01*
X106926536Y-134379551D01*
X106936934Y-134311814D01*
X106945682Y-134255160D01*
X106952447Y-134211794D01*
X106956896Y-134183920D01*
X106958596Y-134174100D01*
X106961589Y-134164597D01*
X106967890Y-134158233D01*
X106980978Y-134154380D01*
X107004331Y-134152409D01*
X107041430Y-134151692D01*
X107083200Y-134151600D01*
X107133758Y-134151767D01*
G37*
G36*
X102896017Y-134153305D02*
G01*
X102961404Y-134154629D01*
X103010288Y-134156192D01*
X103046165Y-134158426D01*
X103072533Y-134161765D01*
X103092888Y-134166639D01*
X103110725Y-134173481D01*
X103128125Y-134181991D01*
X103164619Y-134205238D01*
X103190143Y-134234580D01*
X103202808Y-134256724D01*
X103213351Y-134278754D01*
X103220501Y-134299496D01*
X103224909Y-134323552D01*
X103227224Y-134355521D01*
X103228097Y-134400003D01*
X103228200Y-134436333D01*
X103226655Y-134506195D01*
X103221309Y-134559641D01*
X103211094Y-134600067D01*
X103194942Y-134630868D01*
X103171786Y-134655440D01*
X103155455Y-134667681D01*
X103124451Y-134688763D01*
X103153744Y-134710421D01*
X103176851Y-134733161D01*
X103199271Y-134763886D01*
X103205263Y-134774339D01*
X103212709Y-134789876D01*
X103218421Y-134806484D01*
X103222724Y-134827188D01*
X103225943Y-134855015D01*
X103228401Y-134892991D01*
X103230424Y-134944141D01*
X103232336Y-135011492D01*
X103232844Y-135031600D01*
X103234800Y-135095720D01*
X103237242Y-135153430D01*
X103239982Y-135201606D01*
X103242832Y-135237128D01*
X103245606Y-135256873D01*
X103246528Y-135259486D01*
X103246671Y-135265536D01*
X103235629Y-135269036D01*
X103210614Y-135270316D01*
X103168834Y-135269703D01*
X103161528Y-135269486D01*
X103068200Y-135266600D01*
X103063200Y-135061600D01*
X103060680Y-134980124D01*
X103057513Y-134917490D01*
X103053606Y-134872546D01*
X103048870Y-134844140D01*
X103045091Y-134833621D01*
X103020862Y-134808846D01*
X102981963Y-134795077D01*
X102937549Y-134791600D01*
X102893200Y-134791600D01*
X102893200Y-135271600D01*
X102713200Y-135271600D01*
X102713200Y-134620332D01*
X102893200Y-134620332D01*
X102925700Y-134624539D01*
X102971681Y-134625501D01*
X103008623Y-134616508D01*
X103022193Y-134608296D01*
X103040274Y-134582652D01*
X103053645Y-134542985D01*
X103061713Y-134494841D01*
X103063884Y-134443770D01*
X103059566Y-134395318D01*
X103049046Y-134357083D01*
X103031644Y-134327526D01*
X103006834Y-134310147D01*
X102970013Y-134302519D01*
X102943857Y-134301600D01*
X102893200Y-134301600D01*
X102893200Y-134620332D01*
X102713200Y-134620332D01*
X102713200Y-134150011D01*
X102896017Y-134153305D01*
G37*
G36*
X106733200Y-134311600D02*
G01*
X106433200Y-134311600D01*
X106433200Y-134611600D01*
X106673200Y-134611600D01*
X106673200Y-134771600D01*
X106433200Y-134771600D01*
X106433200Y-135111600D01*
X106733200Y-135111600D01*
X106733200Y-135271600D01*
X106253200Y-135271600D01*
X106253200Y-134151600D01*
X106733200Y-134151600D01*
X106733200Y-134311600D01*
G37*
D10*
X102057200Y-113182400D03*
D11*
X94437200Y-113182400D03*
D12*
X131445000Y-101473000D03*
D13*
X126365000Y-101473000D03*
X121285000Y-101473000D03*
D14*
X104013000Y-144018000D03*
D15*
X106984800Y-121666000D03*
D16*
X109524800Y-121666000D03*
D10*
X99771200Y-110388400D03*
D11*
X107391200Y-110388400D03*
X117602000Y-134874000D03*
X117602000Y-139954000D03*
X89916000Y-126619000D03*
X89916000Y-131699000D03*
D15*
X83566000Y-135001000D03*
D16*
X83566000Y-137541000D03*
X83566000Y-140081000D03*
D11*
X100457000Y-131699000D03*
X100457000Y-126619000D03*
D16*
X107315000Y-131699000D03*
X107315000Y-129159000D03*
D15*
X107315000Y-126619000D03*
D12*
X110617000Y-101473000D03*
D13*
X105537000Y-101473000D03*
X100457000Y-101473000D03*
D10*
X90297000Y-119329200D03*
D11*
X90297000Y-121869200D03*
X120777000Y-127025400D03*
X120777000Y-124587000D03*
X120777000Y-132105400D03*
X113436400Y-105257600D03*
X113436400Y-110337600D03*
X99415600Y-118008400D03*
X99415600Y-123088400D03*
X120777000Y-113715800D03*
X120777000Y-116154200D03*
X120777000Y-121234200D03*
X110236000Y-131699000D03*
X110236000Y-126619000D03*
D10*
X80721200Y-105918000D03*
D11*
X88341200Y-105918000D03*
X80645000Y-135001000D03*
X80645000Y-140081000D03*
D17*
X84455000Y-113030000D03*
D18*
X84455000Y-117729000D03*
X84455000Y-122428000D03*
D11*
X110693200Y-110337600D03*
X110693200Y-105257600D03*
X103886000Y-131699000D03*
X103886000Y-126619000D03*
X83566000Y-131699000D03*
X83566000Y-126619000D03*
X123545600Y-126644400D03*
X123545600Y-131724400D03*
D15*
X116713000Y-130429000D03*
D16*
X116713000Y-127889000D03*
D15*
X107086400Y-114909600D03*
D16*
X109626400Y-114909600D03*
D15*
X131191000Y-109601000D03*
D16*
X131191000Y-107061000D03*
D11*
X86995000Y-135001000D03*
X86995000Y-140081000D03*
X95631000Y-140081000D03*
X95631000Y-135001000D03*
X113030000Y-131699000D03*
X113030000Y-126619000D03*
X89916000Y-135001000D03*
X89916000Y-140081000D03*
X131191000Y-139954000D03*
X131191000Y-134874000D03*
D15*
X113639600Y-118364000D03*
D16*
X116179600Y-118364000D03*
D15*
X86995000Y-131699000D03*
D16*
X86995000Y-129159000D03*
X86995000Y-126619000D03*
D15*
X95758000Y-126619000D03*
D16*
X95758000Y-129159000D03*
X95758000Y-131699000D03*
X102298501Y-118008400D03*
X102298501Y-120548400D03*
D15*
X102298501Y-123088400D03*
D14*
X96418400Y-101498400D03*
D11*
X92837000Y-140081000D03*
X92837000Y-135001000D03*
D19*
X109601000Y-144018000D03*
X106832400Y-144018000D03*
D17*
X126365000Y-113030000D03*
D18*
X126365000Y-117729000D03*
X126365000Y-122428000D03*
D19*
X93624400Y-101498400D03*
D11*
X92837000Y-126619000D03*
X92837000Y-131699000D03*
D19*
X101219000Y-144018000D03*
D12*
X89535000Y-101473000D03*
D13*
X84455000Y-101473000D03*
X79375000Y-101473000D03*
D10*
X95631000Y-121869200D03*
D11*
X95631000Y-119329200D03*
X124764800Y-139954000D03*
X124764800Y-134874000D03*
X114909600Y-134874000D03*
X114909600Y-139954000D03*
X116281200Y-105257600D03*
X116281200Y-110337600D03*
D16*
X127698501Y-134874000D03*
X127698501Y-137414000D03*
D15*
X127698501Y-139954000D03*
D11*
X80645000Y-131699000D03*
X80645000Y-126619000D03*
D15*
X121208800Y-138684000D03*
D16*
X121208800Y-136144000D03*
D11*
X126288800Y-131724400D03*
X126288800Y-126644400D03*
D10*
X89204800Y-110388400D03*
D11*
X96824800Y-110388400D03*
D15*
X129946400Y-130454400D03*
D16*
X129946400Y-127914400D03*
M02*
