M48
METRIC
T1C0.400
T2C1.000
T3C1.200
T4C1.400
T5C2.400
%
G90
G05
T1
X98.4Y-142.011
X103.022Y-99.619
T2
X80.645Y-126.619
X80.645Y-131.699
X80.645Y-135.001
X80.645Y-140.081
X80.721Y-105.918
X83.566Y-126.619
X83.566Y-131.699
X83.566Y-135.001
X83.566Y-137.541
X83.566Y-140.081
X86.995Y-126.619
X86.995Y-129.159
X86.995Y-131.699
X86.995Y-135.001
X86.995Y-140.081
X88.341Y-105.918
X89.205Y-110.388
X89.916Y-126.619
X89.916Y-131.699
X89.916Y-135.001
X89.916Y-140.081
X90.297Y-119.329
X90.297Y-121.869
X92.837Y-126.619
X92.837Y-131.699
X92.837Y-135.001
X92.837Y-140.081
X94.437Y-113.182
X95.631Y-119.329
X95.631Y-121.869
X95.631Y-135.001
X95.631Y-140.081
X95.758Y-126.619
X95.758Y-129.159
X95.758Y-131.699
X96.825Y-110.388
X99.416Y-118.008
X99.416Y-123.088
X99.771Y-110.388
X100.457Y-126.619
X100.457Y-131.699
X102.057Y-113.182
X102.299Y-118.008
X102.299Y-120.548
X102.299Y-123.088
X103.886Y-126.619
X103.886Y-131.699
X106.985Y-121.666
X107.086Y-114.91
X107.315Y-126.619
X107.315Y-129.159
X107.315Y-131.699
X107.391Y-110.388
X109.525Y-121.666
X109.626Y-114.91
X110.236Y-126.619
X110.236Y-131.699
X110.693Y-105.258
X110.693Y-110.338
X113.03Y-126.619
X113.03Y-131.699
X113.436Y-105.258
X113.436Y-110.338
X113.64Y-118.364
X114.91Y-134.874
X114.91Y-139.954
X116.18Y-118.364
X116.281Y-105.258
X116.281Y-110.338
X116.713Y-127.889
X116.713Y-130.429
X117.602Y-134.874
X117.602Y-139.954
X120.777Y-113.716
X120.777Y-116.154
X120.777Y-121.234
X120.777Y-124.587
X120.777Y-127.025
X120.777Y-132.105
X121.209Y-136.144
X121.209Y-138.684
X123.546Y-126.644
X123.546Y-131.724
X124.765Y-134.874
X124.765Y-139.954
X126.289Y-126.644
X126.289Y-131.724
X127.699Y-134.874
X127.699Y-137.414
X127.699Y-139.954
X129.946Y-127.914
X129.946Y-130.454
X131.191Y-107.061
X131.191Y-109.601
X131.191Y-134.874
X131.191Y-139.954
T3
X93.624Y-101.498
X96.418Y-101.498
X101.219Y-144.018
X104.013Y-144.018
X106.832Y-144.018
X109.601Y-144.018
T4
X79.375Y-101.473
X84.455Y-101.473
X89.535Y-101.473
X100.457Y-101.473
X105.537Y-101.473
X110.617Y-101.473
X121.285Y-101.473
X126.365Y-101.473
X131.445Y-101.473
T5
X84.455Y-113.03
X84.455Y-117.729
X84.455Y-122.428
X126.365Y-113.03
X126.365Y-117.729
X126.365Y-122.428
T0
M30
