%TF.GenerationSoftware,KiCad,Pcbnew,7.0.5-0*%
%TF.CreationDate,2023-06-06T12:59:25+02:00*%
%TF.ProjectId,kropyvnytskyi-overdrive,6b726f70-7976-46e7-9974-736b79692d6f,1.0*%
%TF.SameCoordinates,Original*%
%TF.FileFunction,Legend,Bot*%
%TF.FilePolarity,Positive*%
%FSLAX46Y46*%
G04 Gerber Fmt 4.6, Leading zero omitted, Abs format (unit mm)*
G04 Created by KiCad (PCBNEW 7.0.5-0) date 2023-06-06 12:59:25*
%MOMM*%
%LPD*%
G01*
G04 APERTURE LIST*
%ADD10C,0.127000*%
%ADD11C,0.152400*%
%ADD12R,2.000000X2.000000*%
%ADD13O,2.000000X2.000000*%
%ADD14R,2.540000X2.540000*%
%ADD15O,2.540000X2.540000*%
%ADD16R,2.032000X2.032000*%
%ADD17R,1.930400X1.930400*%
%ADD18O,1.930400X1.930400*%
%ADD19R,3.416000X3.416000*%
%ADD20O,3.416000X3.416000*%
%ADD21O,2.032000X2.032000*%
G04 APERTURE END LIST*
D10*
X119761000Y-99949000D02*
X119761000Y-102997000D01*
X129921000Y-102997000D02*
X132969000Y-102997000D01*
X119761000Y-102997000D02*
X122809000Y-102997000D01*
X129921000Y-99949000D02*
X129921000Y-102997000D01*
X129921000Y-99949000D02*
X132969000Y-99949000D01*
X126365000Y-93863000D02*
X126365000Y-76083000D01*
X132969000Y-102997000D02*
X132969000Y-99949000D01*
X124841000Y-102997000D02*
X127889000Y-102997000D01*
X117475000Y-84963000D02*
X135255000Y-84973000D01*
X127889000Y-102997000D02*
X127889000Y-99949000D01*
X118745000Y-89408000D02*
X118745000Y-99568000D01*
X119761000Y-99949000D02*
X122809000Y-99949000D01*
X133985000Y-99568000D02*
X133985000Y-89408000D01*
X118745000Y-99568000D02*
X133985000Y-99568000D01*
X122809000Y-102997000D02*
X122809000Y-99949000D01*
X124841000Y-99949000D02*
X127889000Y-99949000D01*
X124841000Y-99949000D02*
X124841000Y-102997000D01*
X126365002Y-76073000D02*
G75*
G03*
X117475000Y-84963000I-102J-8889900D01*
G01*
X135255000Y-84963000D02*
G75*
G03*
X126365000Y-76072998I-8889899J103D01*
G01*
X126365000Y-93863000D02*
G75*
G03*
X135255000Y-84973000I-1J8890001D01*
G01*
X117475000Y-84963000D02*
G75*
G03*
X126365000Y-93853000I8890000J0D01*
G01*
X127263000Y-84973000D02*
G75*
G03*
X127263000Y-84973000I-898000J0D01*
G01*
D11*
X102743000Y-142748000D02*
X102743000Y-145288000D01*
X105283000Y-145288000D02*
X105283000Y-142748000D01*
X105283000Y-142748000D02*
X102743000Y-142748000D01*
X105283000Y-141478000D02*
X105283000Y-142748000D01*
X102743000Y-145288000D02*
X105283000Y-145288000D01*
X102743000Y-142748000D02*
X102743000Y-141478000D01*
X102743000Y-141478000D02*
X105283000Y-141478000D01*
D10*
X109093000Y-99949000D02*
X109093000Y-102997000D01*
X109093000Y-99949000D02*
X112141000Y-99949000D01*
X113157000Y-99568000D02*
X113157000Y-89408000D01*
X101981000Y-102997000D02*
X101981000Y-99949000D01*
X112141000Y-102997000D02*
X112141000Y-99949000D01*
X98933000Y-99949000D02*
X101981000Y-99949000D01*
X96647000Y-84963000D02*
X114427000Y-84973000D01*
X97917000Y-89408000D02*
X97917000Y-99568000D01*
X98933000Y-102997000D02*
X101981000Y-102997000D01*
X104013000Y-99949000D02*
X104013000Y-102997000D01*
X104013000Y-102997000D02*
X107061000Y-102997000D01*
X107061000Y-102997000D02*
X107061000Y-99949000D01*
X97917000Y-99568000D02*
X113157000Y-99568000D01*
X98933000Y-99949000D02*
X98933000Y-102997000D01*
X109093000Y-102997000D02*
X112141000Y-102997000D01*
X105537000Y-93863000D02*
X105537000Y-76083000D01*
X104013000Y-99949000D02*
X107061000Y-99949000D01*
X105537002Y-76073000D02*
G75*
G03*
X96647000Y-84963000I-102J-8889900D01*
G01*
X114427000Y-84963000D02*
G75*
G03*
X105537000Y-76072998I-8889899J103D01*
G01*
X96647000Y-84963000D02*
G75*
G03*
X105537000Y-93853000I8890000J0D01*
G01*
X105537000Y-93863000D02*
G75*
G03*
X114427000Y-84973000I-1J8890001D01*
G01*
X106435000Y-84973000D02*
G75*
G03*
X106435000Y-84973000I-898000J0D01*
G01*
X89027000Y-118821200D02*
X89027000Y-122123200D01*
X91948000Y-123139200D02*
X91948000Y-122504200D01*
X90805000Y-117932200D02*
X89789000Y-117932200D01*
X88646000Y-123139200D02*
X91948000Y-123139200D01*
X90932000Y-120599200D02*
X89662000Y-120599200D01*
X88646000Y-122504200D02*
X88646000Y-123139200D01*
X90297000Y-119964200D02*
X90297000Y-121234200D01*
X91567000Y-118821200D02*
X91567000Y-122123200D01*
X88646000Y-122504200D02*
G75*
G03*
X89027000Y-122123200I0J381000D01*
G01*
X91566999Y-118821200D02*
G75*
G03*
X90804999Y-117932200I-825499J63501D01*
G01*
X89789000Y-117932201D02*
G75*
G03*
X89027002Y-118821201I63500J-825498D01*
G01*
X91567000Y-122123200D02*
G75*
G03*
X91948000Y-122504200I381000J0D01*
G01*
D11*
X86106000Y-110744000D02*
X82804000Y-110744000D01*
X82804000Y-124079000D02*
X82804000Y-124714000D01*
X86106000Y-111379000D02*
X86106000Y-110744000D01*
X86106000Y-124079000D02*
X86741000Y-124079000D01*
D10*
X83820000Y-117729000D02*
X85090000Y-117729000D01*
D11*
X82169000Y-111379000D02*
X82169000Y-124079000D01*
X82804000Y-110744000D02*
X82804000Y-111379000D01*
X82804000Y-111379000D02*
X82169000Y-111379000D01*
X82804000Y-124714000D02*
X86106000Y-124714000D01*
X82169000Y-124079000D02*
X82804000Y-124079000D01*
X86106000Y-124714000D02*
X86106000Y-124079000D01*
X86741000Y-124079000D02*
X86741000Y-111379000D01*
X86741000Y-111379000D02*
X86106000Y-111379000D01*
D10*
X84455000Y-117094000D02*
X84455000Y-118364000D01*
X85090000Y-117729000D02*
G75*
G03*
X85090000Y-117729000I-635000J0D01*
G01*
D11*
X97688400Y-100228400D02*
X95148400Y-100228400D01*
X97688400Y-102768400D02*
X97688400Y-104038400D01*
X95148400Y-102768400D02*
X97688400Y-102768400D01*
X97688400Y-102768400D02*
X97688400Y-100228400D01*
X95148400Y-100228400D02*
X95148400Y-102768400D01*
X95148400Y-104038400D02*
X95148400Y-102768400D01*
X97688400Y-104038400D02*
X95148400Y-104038400D01*
X108331000Y-141478000D02*
X110871000Y-141478000D01*
X108331000Y-145288000D02*
X110871000Y-145288000D01*
X110871000Y-142748000D02*
X108331000Y-142748000D01*
X110871000Y-141478000D02*
X110871000Y-142748000D01*
X110871000Y-145288000D02*
X110871000Y-142748000D01*
X108331000Y-142748000D02*
X108331000Y-141478000D01*
X108331000Y-142748000D02*
X108331000Y-145288000D01*
X108102400Y-145288000D02*
X108102400Y-142748000D01*
X105562400Y-142748000D02*
X105562400Y-141478000D01*
X108102400Y-142748000D02*
X105562400Y-142748000D01*
X108102400Y-141478000D02*
X108102400Y-142748000D01*
X105562400Y-142748000D02*
X105562400Y-145288000D01*
X105562400Y-141478000D02*
X108102400Y-141478000D01*
X105562400Y-145288000D02*
X108102400Y-145288000D01*
X128016000Y-124079000D02*
X128651000Y-124079000D01*
X124079000Y-111379000D02*
X124079000Y-124079000D01*
X128651000Y-111379000D02*
X128016000Y-111379000D01*
X128016000Y-110744000D02*
X124714000Y-110744000D01*
X124079000Y-124079000D02*
X124714000Y-124079000D01*
D10*
X125730000Y-117729000D02*
X127000000Y-117729000D01*
X126365000Y-117094000D02*
X126365000Y-118364000D01*
D11*
X128016000Y-124714000D02*
X128016000Y-124079000D01*
X128016000Y-111379000D02*
X128016000Y-110744000D01*
X124714000Y-110744000D02*
X124714000Y-111379000D01*
X124714000Y-124714000D02*
X128016000Y-124714000D01*
X124714000Y-124079000D02*
X124714000Y-124714000D01*
X124714000Y-111379000D02*
X124079000Y-111379000D01*
X128651000Y-124079000D02*
X128651000Y-111379000D01*
D10*
X127000000Y-117729000D02*
G75*
G03*
X127000000Y-117729000I-635000J0D01*
G01*
D11*
X94894400Y-102768400D02*
X94894400Y-104038400D01*
X94894400Y-100228400D02*
X92354400Y-100228400D01*
X92354400Y-100228400D02*
X92354400Y-102768400D01*
X92354400Y-104038400D02*
X92354400Y-102768400D01*
X92354400Y-102768400D02*
X94894400Y-102768400D01*
X94894400Y-104038400D02*
X92354400Y-104038400D01*
X94894400Y-102768400D02*
X94894400Y-100228400D01*
X102489000Y-141478000D02*
X102489000Y-142748000D01*
X99949000Y-142748000D02*
X99949000Y-141478000D01*
X99949000Y-141478000D02*
X102489000Y-141478000D01*
X102489000Y-145288000D02*
X102489000Y-142748000D01*
X99949000Y-145288000D02*
X102489000Y-145288000D01*
X102489000Y-142748000D02*
X99949000Y-142748000D01*
X99949000Y-142748000D02*
X99949000Y-145288000D01*
D10*
X88011000Y-99949000D02*
X91059000Y-99949000D01*
X88011000Y-102997000D02*
X91059000Y-102997000D01*
X77851000Y-99949000D02*
X77851000Y-102997000D01*
X84455000Y-93863000D02*
X84455000Y-76083000D01*
X82931000Y-102997000D02*
X85979000Y-102997000D01*
X91059000Y-102997000D02*
X91059000Y-99949000D01*
X76835000Y-89408000D02*
X76835000Y-99568000D01*
X92075000Y-99568000D02*
X92075000Y-89408000D01*
X82931000Y-99949000D02*
X82931000Y-102997000D01*
X75565000Y-84963000D02*
X93345000Y-84973000D01*
X85979000Y-102997000D02*
X85979000Y-99949000D01*
X82931000Y-99949000D02*
X85979000Y-99949000D01*
X77851000Y-102997000D02*
X80899000Y-102997000D01*
X88011000Y-99949000D02*
X88011000Y-102997000D01*
X76835000Y-99568000D02*
X92075000Y-99568000D01*
X80899000Y-102997000D02*
X80899000Y-99949000D01*
X77851000Y-99949000D02*
X80899000Y-99949000D01*
X93345000Y-84963000D02*
G75*
G03*
X84455000Y-76072998I-8889899J103D01*
G01*
X84455000Y-93863000D02*
G75*
G03*
X93345000Y-84973000I-1J8890001D01*
G01*
X75565000Y-84963000D02*
G75*
G03*
X84455000Y-93853000I8890000J0D01*
G01*
X84455002Y-76073000D02*
G75*
G03*
X75565000Y-84963000I-102J-8889900D01*
G01*
X85353000Y-84973000D02*
G75*
G03*
X85353000Y-84973000I-898000J0D01*
G01*
X94361000Y-122377200D02*
X94361000Y-119075200D01*
X95123000Y-123266200D02*
X96139000Y-123266200D01*
X96901000Y-122377200D02*
X96901000Y-119075200D01*
X95631000Y-121234200D02*
X95631000Y-119964200D01*
X97282000Y-118694200D02*
X97282000Y-118059200D01*
X94996000Y-120599200D02*
X96266000Y-120599200D01*
X93980000Y-118059200D02*
X93980000Y-118694200D01*
X97282000Y-118059200D02*
X93980000Y-118059200D01*
X97282000Y-118694200D02*
G75*
G03*
X96901000Y-119075200I0J-381000D01*
G01*
X96139000Y-123266199D02*
G75*
G03*
X96900998Y-122377199I-63500J825498D01*
G01*
X94361000Y-119075200D02*
G75*
G03*
X93980000Y-118694200I-381000J0D01*
G01*
X94361001Y-122377200D02*
G75*
G03*
X95123001Y-123266200I825499J-63501D01*
G01*
%LPC*%
D12*
X102057200Y-113182400D03*
D13*
X94437200Y-113182400D03*
D14*
X131445000Y-101473000D03*
D15*
X126365000Y-101473000D03*
X121285000Y-101473000D03*
D16*
X104013000Y-144018000D03*
D17*
X106984800Y-121666000D03*
D18*
X109524800Y-121666000D03*
D12*
X99771200Y-110388400D03*
D13*
X107391200Y-110388400D03*
X117602000Y-134874000D03*
X117602000Y-139954000D03*
X89916000Y-126619000D03*
X89916000Y-131699000D03*
D17*
X83566000Y-135001000D03*
D18*
X83566000Y-137541000D03*
X83566000Y-140081000D03*
D13*
X100457000Y-131699000D03*
X100457000Y-126619000D03*
D18*
X107315000Y-131699000D03*
X107315000Y-129159000D03*
D17*
X107315000Y-126619000D03*
D14*
X110617000Y-101473000D03*
D15*
X105537000Y-101473000D03*
X100457000Y-101473000D03*
D12*
X90297000Y-119329200D03*
D13*
X90297000Y-121869200D03*
X120777000Y-127025400D03*
X120777000Y-124587000D03*
X120777000Y-132105400D03*
X113436400Y-105257600D03*
X113436400Y-110337600D03*
X99415600Y-118008400D03*
X99415600Y-123088400D03*
X120777000Y-113715800D03*
X120777000Y-116154200D03*
X120777000Y-121234200D03*
X110236000Y-131699000D03*
X110236000Y-126619000D03*
D12*
X80721200Y-105918000D03*
D13*
X88341200Y-105918000D03*
X80645000Y-135001000D03*
X80645000Y-140081000D03*
D19*
X84455000Y-113030000D03*
D20*
X84455000Y-117729000D03*
X84455000Y-122428000D03*
D13*
X110693200Y-110337600D03*
X110693200Y-105257600D03*
X103886000Y-131699000D03*
X103886000Y-126619000D03*
X83566000Y-131699000D03*
X83566000Y-126619000D03*
X123545600Y-126644400D03*
X123545600Y-131724400D03*
D17*
X116713000Y-130429000D03*
D18*
X116713000Y-127889000D03*
D17*
X107086400Y-114909600D03*
D18*
X109626400Y-114909600D03*
D17*
X131191000Y-109601000D03*
D18*
X131191000Y-107061000D03*
D13*
X86995000Y-135001000D03*
X86995000Y-140081000D03*
X95631000Y-140081000D03*
X95631000Y-135001000D03*
X113030000Y-131699000D03*
X113030000Y-126619000D03*
X89916000Y-135001000D03*
X89916000Y-140081000D03*
X131191000Y-139954000D03*
X131191000Y-134874000D03*
D17*
X113639600Y-118364000D03*
D18*
X116179600Y-118364000D03*
D17*
X86995000Y-131699000D03*
D18*
X86995000Y-129159000D03*
X86995000Y-126619000D03*
D17*
X95758000Y-126619000D03*
D18*
X95758000Y-129159000D03*
X95758000Y-131699000D03*
X102298501Y-118008400D03*
X102298501Y-120548400D03*
D17*
X102298501Y-123088400D03*
D16*
X96418400Y-101498400D03*
D13*
X92837000Y-140081000D03*
X92837000Y-135001000D03*
D21*
X109601000Y-144018000D03*
X106832400Y-144018000D03*
D19*
X126365000Y-113030000D03*
D20*
X126365000Y-117729000D03*
X126365000Y-122428000D03*
D21*
X93624400Y-101498400D03*
D13*
X92837000Y-126619000D03*
X92837000Y-131699000D03*
D21*
X101219000Y-144018000D03*
D14*
X89535000Y-101473000D03*
D15*
X84455000Y-101473000D03*
X79375000Y-101473000D03*
D12*
X95631000Y-121869200D03*
D13*
X95631000Y-119329200D03*
X124764800Y-139954000D03*
X124764800Y-134874000D03*
X114909600Y-134874000D03*
X114909600Y-139954000D03*
X116281200Y-105257600D03*
X116281200Y-110337600D03*
D18*
X127698501Y-134874000D03*
X127698501Y-137414000D03*
D17*
X127698501Y-139954000D03*
D13*
X80645000Y-131699000D03*
X80645000Y-126619000D03*
D17*
X121208800Y-138684000D03*
D18*
X121208800Y-136144000D03*
D13*
X126288800Y-131724400D03*
X126288800Y-126644400D03*
D12*
X89204800Y-110388400D03*
D13*
X96824800Y-110388400D03*
D17*
X129946400Y-130454400D03*
D18*
X129946400Y-127914400D03*
%LPD*%
M02*
